<svg id="svg-main" xmlns="http://www.w3.org/2000/svg" xmlns:xlink="http://www.w3.org/1999/xlink"  viewBox="550 100 100 550" preserveAspectRatio="xMidYMid meet" class="sky-gradient" >
    
   
    
    <rect id="svgEditorBackground" x="0" y="0" width="1160" height="510" style="fill: none; stroke: none;"/>
       
   <g id="mountains" class="rotate">
	<path fill="#b8eded" d="M325.969,324.392c-3.575,13.087-12.468,35.907-13.047,37.657c-0.579,1.748-3.036,9.39-5.531,14.504
		c-2.493,5.116-3.538,6.071-5.125,11.09c-1.589,5.02-3.473,10.491-3.307,11.527c0.167,1.037,2.819,6.445,6.364,10.917
		c3.545,4.471,2.582,5.733,2.063,6.422c-0.173,0.23-8.438,19.544-8.392,19.838c0.274,1.761,4.466,5.777,4.466,5.777
		s-4.288,6.571-3.971,7.593c0.318,1.02,1.696,2.138,1.414,3.433c-0.284,1.296-3.511,7.965-4.845,9.794
		c-1.333,1.83-3.693,5.876-3.693,5.876s-11.827,21.688-10.45,22.806c1.379,1.117,12.808,13.418,16.469,15.557
		c3.663,2.141,7.544,8.895,7.544,8.895l4.205,14.288c6.964,5.363,3.696,5.889,10.392,11.142c0,0,3.077,3.467,4.606,4.567
		c1.528,1.103,5.676,15.418,5.748,20.26s14.818-0.106,14.818-0.106l10.355,9.795l-4.156-277.462
		C339.988,308.937,329.45,311.648,325.969,324.392z"/>
	<path fill="#F3FEFF" d="M317.322,538.613c0.712,1.032,1.761,2.261,3.639,3.964c0,0,2.906,3.739,4.379,4.975
		c0.758,0.635,2.052,4.843,3.108,9.435l3.92,7.6l-1.294-6.845l-2.875-6.414l1.455,1.416l-1.675-4.796l6.021,8.34l-0.521-2.876
		l1.439,0.666l6.679,8.976l-2.009-5.535l-2.435-4.431l-1.083-3.165l5.688,6.305l-0.473-0.886l-2.134-4.886l-1.176-3.659l5.302,6.164
		l-1.211-2.415l0.684-0.215l4.534,4.34l-6.128-9.533l0.364,2.184l-7.229-7.169l-1.542-0.864l0.161,1.789l0.256,0.991l-3.022-1.333
		l0.156,1.989l-6.112-2.762l-0.768,1.906L317.322,538.613z"/>
	<path fill="#F3FEFF" d="M307.392,416.452c-0.17,0.229-8.214,19.022-8.389,19.815L299,436.289c0,0,6.141-9.043,6.077-8.537
		c-0.064,0.504-0.582,4.043-0.024,3.186c0.559-0.854,1.895-2.191,1.895-2.191s1.042-2.002,1.4-1.842
		c0.36,0.161,1.792,0.505,1.792,0.505s0.356,0.063,1.131-0.717c0.774-0.778,0.98-1.2,2.102-2.613
		c1.122-1.412,3.371-3.742,4.148-4.224c0.778-0.481-1.792,9.048-1.792,9.048s6.096-7.717,6.422-9.74
		c0.326-2.024-0.405-3.24,1.263-6.205c1.668-2.966,2.761-5.238,2.761-5.238l-6.364,7.713l0.304-3.516c0,0,1.101-2.806,0.677-2.462
		c-0.422,0.345-4.267,5.829-4.906,5.996c-0.64,0.169-2.745,2.583-2.745,2.583l-0.46-2.141l0.727-3.859l-3.162,3.323
		c0,0,0.867-4.073,1.002-4.584c0.136-0.512,0.396-2.23,0.396-2.23l-3.953,7.464c0,0.002-0.002,0.003-0.001,0.005
		C307.592,416.187,307.485,416.328,307.392,416.452z"/>
	<path fill="#F3FEFF" d="M318.521,530.212l2.934,2.921l1.719,0.215l2.414,1.534l-0.503-2.585c0,0,1.399,1.304,1.969,2.036
		c-0.538-0.93-1.844-3.294-1.844-3.294s4.79,2.972,4.464,2.56c-0.329-0.414-4.225-3.132-4.225-3.132s-2.14-2.259-2.357-2.634
		c-0.221-0.375,0.08,2.976,0.631,3.963c0.55,0.985-5.26-5.561-5.549-5.876c-0.291-0.316-1.404-0.797-1.436-0.443
		c-0.031,0.351,0.422,1.995,0.422,1.995l-2.796-0.848l0.141,2.176l-6.748-9.579l3.463,7.292l-1.088,3.851
		c0.372,0.286,0.715,0.56,1.031,0.819c-0.031-0.273-0.04-0.443-0.022-0.481c0.148-0.341,2.411,1.384,2.663,1.557
		c0.252,0.172-1.021-1.532-0.847-1.7c0.176-0.169,1.604-0.121,2.394,0.094c0.789,0.213,1.578,0.478,1.578,0.478
		s-0.199-1.322,0.091-1.005c0.291,0.316,3.955,4.354,3.807,4.021c-0.146-0.333-0.698-1.419-0.989-1.834
		C319.546,531.893,318.521,530.212,318.521,530.212z"/>
	<circle id="_x32_-plan_1_" fill="#b8eded" cx="594" cy="440" r="280.866"/>
	<rect id="svgEditorBackground" x="520.629" y="188.325" fill="none" width="595.28" height="261.719"/>
	<g>
		<path fill="#b8eded" d="M412.557,221.284c-9.5,9.685-28.39,25.274-29.747,26.521c-1.357,1.245-7.229,6.719-11.899,9.97
			c-4.67,3.252-6.048,3.576-9.881,7.185c-3.834,3.606-8.146,7.468-8.506,8.453c-0.359,0.986-0.681,7.003,0.235,12.635
			s-0.541,6.265-1.331,6.612c-0.264,0.116-16.894,12.952-16.997,13.229c-0.619,1.673,1.083,7.222,1.083,7.222
			s-6.948,3.648-7.168,4.694s0.438,2.694-0.439,3.688c-0.879,0.992-6.946,5.242-9.004,6.189c-2.056,0.947-6.089,3.33-6.089,3.33
			s-20.898,13.171-20.24,14.819c0.659,1.647,4.642,17.959,6.796,21.609c2.155,3.654,2.252,11.443,2.252,11.443l-3.293,14.525
			c3.466,8.077,0.358,6.942,3.644,14.792c0,0,0.997,4.527,1.795,6.234s-2.559,16.229-4.856,20.49
			c-2.296,4.264,12.991,7.131,12.991,7.131l4.269,13.6l131.614-244.294C432.331,214.623,421.809,211.854,412.557,221.284z"/>
		<path fill="#F3FEFF" d="M312.755,330.899c0,0-15.711,9.902-19.46,13.609c-0.495,0.757-0.779,1.21-0.779,1.21
			s13.552-6.078,12.77-5.229c-0.782,0.852-2.026,3.763-1.696,3.902c0.329,0.141,4.728-0.351,4.728-0.351l0.009,2.691l-1.074,2.446
			c0,0,9.564-7.219,12.099-7.859c2.533-0.642,2.75,0.312,3.136,0.799c0.387,0.486-0.292,0.843,1.253,0.533s2.188-0.896,3.101-0.938
			c0.915-0.041,2.204,0.724,2.204,0.724l-0.312,1.481c0,0-0.632,1.773,0.084,1.648c0.715-0.125,3.288-0.535,5.644-1.145
			c2.356-0.61,8.951-1.564,8.951-1.564l5.305-0.967c0,0-11.654-0.341-12.794-0.181s-2.309-0.23-2.309-0.23s9.978-7.607,8.875-7.218
			c-1.102,0.391-3.665,1.235-3.665,1.235s1.057-1.057,0.664-1.009c-0.391,0.05-1.526,0.427-2.204,0.406
			c-0.679-0.02-10.104,1.825-10.104,1.825s2.666-2.091,2.501-2.161s-2.06-0.017-2.06-0.017s-2.039-2.912-1.821-3.089
			c0.216-0.177,1.885-1.617,3.589-2.45c1.706-0.833,6.474-3.212,7.062-3.552c0.59-0.341,2.305-1.116,2.305-1.116
			s-11.24,3.708-11.503,3.596c-0.264-0.112,3.255-3.561,3.308-3.808c0.052-0.247-3.246,0.606-3.043,0.155
			c0.203-0.45,0.872-1.618,0.872-1.618l-0.54-1.287c-0.88,0.993-6.948,5.244-9.005,6.189
			C316.787,328.516,312.755,330.899,312.755,330.899z"/>
		<path fill="#F3FEFF" d="M300.588,404.118c0.119,1.248,0.436,2.832,1.244,5.234c0,0,0.716,4.682,1.399,6.477
			c0.352,0.925-0.569,5.229-1.884,9.754l-0.281,8.548l2.206-6.607l0.616-7.002l0.58,1.945l0.875-5.004l1.192,10.217l0.947-2.767
			l0.932,1.283l1.458,11.092l0.943-5.813l0.035-5.055l0.597-3.291l1.895,8.276l0.02-1.004l0.517-5.305l0.758-3.771l1.625,7.968
			l0.12-2.699l0.7,0.146l1.846,5.998l-0.704-11.311l-0.747,2.084l-2.818-9.783l-0.925-1.506l-0.73,1.641l-0.26,0.99l-1.989-2.637
			l-0.833,1.813l-3.991-5.391l-1.6,1.291L300.588,404.118z"/>
		<path fill="#F3FEFF" d="M293.933,350.572c1.527,5.571,3.993,14.604,5.528,17.207c0.135,0.23,0.263,0.478,0.383,0.736l0,0l0,0
			c1.48,3.209,1.792,8.465,1.854,10.16l1.083,3.752l1.027-3.111l1.505,8.492c0,0,0.445-5.94,0.266-6.662
			c-0.179-0.723,0.237-2.694,0.237-2.694s-0.385-5.007-0.3-5.613c0.084-0.609,4.285,3.332,4.285,3.332s0.987,1.926,1.279,2.588
			s3.286,6.994,3.568,7.975s0.452-3.248,0.452-3.248l-0.158-4.37l2.213,3.418l0.8,0.771l1.771-1.936c0,0,0.979-0.013,1.234,0.42
			c0.254,0.43,3.513,4.614,3.784,5.162c0.273,0.545,0.53-5.8,0.53-5.8s9.011,15.779,9.029,16.648
			c0.019,0.867-5.298-17.103-5.298-17.103s-0.138-1.395-0.914-2.219c-0.776-0.821-0.857-1.871-0.857-1.871l-1.8-0.119l-0.875-0.481
			c0,0-1.253-1.287-1.479-1.92c-0.226-0.635-1.347,1.146-1.347,1.146l-4.948-10.981l-1.263,2.797c0,0-1.854-1.976-2.108-2.404
			c-0.255-0.432-0.152,5.851-0.152,5.851s-8.183-13.704-8.512-13.845c-0.329-0.14-0.886,2.85-0.886,2.85l-1.818-0.989l-2.138-2.955
			c0,0,0.197,3.849,0.433,4.164C300.579,360.032,294.114,351.229,293.933,350.572z"/>
		<path fill="#F3FEFF" d="M412.457,221.414c-9.501,9.685-28.39,25.275-29.749,26.52c-1.355,1.245-7.227,6.72-11.898,9.971
			c-4.671,3.25-6.049,3.575-9.882,7.185c-3.466,3.262-7.322,6.729-8.296,8.093l11.524-7.188l-1.488,2.162l3.655-1.669l7.876-5.141
			l5.55-3.229l-7.764,8.093l4.07-2.138l14.229-12.49l-1.361,2l1.969-0.722l-0.537,0.848l-0.754,1.023l-3.217,3.038l-4.198,3.805
			l-1.768,1.398l9.215-4.84l9.808-4.962l9.96-4.792l12.854-10.765l3.083-9.335l3.119-3.081l8.671-10.072l2.647-2.351
			c-2.356,0.287-4.589,0.493-6.715,0.711l-16.477,4.533C415.175,218.932,413.803,220.042,412.457,221.414z"/>
		<path fill="#F3FEFF" d="M351.462,292.613c-0.26,0.116-16.444,12.605-16.983,13.214l-0.014,0.018c0,0,9.77-4.902,9.468-4.493
			s-2.479,3.247-1.574,2.771s2.723-0.991,2.723-0.991s1.886-1.24,2.12-0.925c0.235,0.314,1.318,1.313,1.318,1.313
			s0.282,0.229,1.337-0.075c1.056-0.303,1.441-0.569,3.109-1.257s4.768-1.626,5.681-1.667c0.914-0.041-5.975,7.027-5.975,7.027
			s9.084-3.768,10.354-5.375c1.272-1.609,1.227-3.027,4.128-4.803c2.902-1.775,4.963-3.229,4.963-3.229l-9.315,3.633l1.979-2.921
			c0,0,2.327-1.912,1.791-1.817c-0.536,0.093-6.566,3.01-7.208,2.844c-0.641-0.165-3.656,0.917-3.656,0.917l0.643-2.093l2.516-3.016
			l-4.381,1.36c0,0,2.742-3.133,3.109-3.516c0.368-0.381,1.433-1.756,1.433-1.756l-7.09,4.592c0,0.001-0.002,0.001-0.003,0.002
			C351.768,292.479,351.604,292.551,351.462,292.613z"/>
		<path fill="#F3FEFF" d="M305.73,397.367l1.138,3.979l1.395,1.025l1.36,2.516l0.82-2.502c0,0,0.587,1.82,0.727,2.738
			c-0.018-1.073-0.006-3.775-0.006-3.775s2.735,4.93,2.65,4.411c-0.085-0.521-2.161-4.793-2.161-4.793s-0.767-3.016-0.775-3.449
			c-0.01-0.436-1.381,2.637-1.38,3.769c-0.001,1.129-1.883-7.418-1.981-7.836c-0.099-0.418-0.838-1.38-1.037-1.087
			c-0.198,0.291-0.604,1.947-0.604,1.947l-2.029-2.102l-0.937,1.967l-1.222-11.652l-0.53,8.056l-2.827,2.832
			c0.185,0.432,0.352,0.836,0.502,1.219c0.105-0.254,0.181-0.406,0.215-0.433c0.296-0.225,1.43,2.384,1.567,2.656
			c0.137,0.273-0.145-1.836,0.09-1.896c0.235-0.063,1.46,0.676,2.044,1.248c0.584,0.569,1.145,1.186,1.145,1.186
			s0.471-1.252,0.569-0.832c0.1,0.418,1.332,5.729,1.364,5.367c0.034-0.363,0.081-1.58,0.029-2.084
			C305.806,399.333,305.73,397.367,305.73,397.367z"/>
	</g>
	<g>
		<path fill="#b8eded" d="M670.077,159.719c-13.471-1.604-37.354-7.035-39.169-7.349c-1.814-0.314-9.734-1.618-15.163-3.331
			c-5.428-1.711-6.525-2.604-11.724-3.435c-5.198-0.832-10.889-1.887-11.889-1.569s-5.96,3.738-9.859,7.904
			s-5.291,3.399-6.047,2.986c-0.254-0.137-20.575-5.461-20.858-5.374c-1.703,0.532-5.056,5.27-5.056,5.27s-7.133-3.271-8.095-2.808
			c-0.962,0.466-1.865,1.993-3.188,1.905c-1.323-0.089-8.395-2.297-10.4-3.348c-2.007-1.049-6.356-2.785-6.356-2.785
			s-23.195-8.499-24.097-6.972c-0.902,1.528-11.382,14.646-12.957,18.583c-1.577,3.938-7.685,8.774-7.685,8.774l-13.512,6.267
			c-4.278,7.68-5.278,4.525-9.486,11.921c0,0-2.976,3.556-3.839,5.23c-0.864,1.674-14.411,7.888-19.188,8.673
			c-4.778,0.787,2.291,14.641,2.291,14.641l-8.16,11.688l273.813-45.041C687.432,171.306,683.194,161.284,670.077,159.719z"/>
		<path fill="#F3FEFF" d="M522.324,147.671c0,0-17.438-6.39-22.663-7.093c-0.901,0.069-1.435,0.123-1.435,0.123
			s13.091,7.016,11.94,6.916c-1.151-0.1-4.218,0.693-4.125,1.042c0.09,0.346,3.166,3.528,3.166,3.528l-2.127,1.651l-2.593,0.644
			c0,0,11.559,3.163,13.614,4.778c2.055,1.614,1.434,2.368,1.283,2.971c-0.149,0.604-0.847,0.284,0.343,1.318
			c1.188,1.034,2.046,1.183,2.637,1.881c0.591,0.699,0.773,2.188,0.773,2.188l-1.363,0.657c0,0-1.791,0.583-1.254,1.074
			c0.536,0.49,2.432,2.276,4.353,3.769c1.924,1.493,6.707,6.132,6.707,6.132l4.007,3.607c0,0-6.851-9.435-7.674-10.239
			c-0.821-0.805-1.228-1.969-1.228-1.969s12.119,3.251,11.136,2.617c-0.982-0.634-3.216-2.146-3.216-2.146s1.481,0.189,1.203-0.09
			c-0.277-0.28-1.271-0.948-1.667-1.497c-0.399-0.55-7.618-6.886-7.618-6.886s3.284,0.833,3.239,0.66s-1.244-1.64-1.244-1.64
			s1.06-3.395,1.333-3.33c0.271,0.063,2.431,0.505,4.132,1.345c1.702,0.841,6.498,3.163,7.127,3.421
			c0.629,0.26,2.291,1.144,2.291,1.144s-9.802-6.634-9.875-6.911c-0.072-0.277,4.808,0.402,5.035,0.292
			c0.227-0.11-2.464-2.199-1.982-2.314c0.481-0.114,1.814-0.298,1.814-0.298l0.688-1.213c-1.323-0.09-8.396-2.297-10.401-3.348
			S522.324,147.671,522.324,147.671z"/>
		<path fill="#F3FEFF" d="M456.924,182.769c-0.916,0.857-1.977,2.075-3.385,4.184c0,0-3.269,3.427-4.271,5.063
			c-0.517,0.843-4.487,2.744-8.873,4.467l-6.938,4.999l6.579-2.29l5.92-3.79l-1.186,1.647l4.497-2.364l-7.36,7.187l2.769-0.94
			l-0.447,1.521l-7.891,7.93l5.178-2.804l4.023-3.062l2.97-1.538l-5.396,6.557l0.808-0.599l4.516-2.831l3.447-1.704l-5.315,6.153
			l2.21-1.554l0.313,0.644l-3.622,5.125l8.524-7.467l-2.105,0.682l6.022-8.208l0.627-1.651l-1.744,0.424l-0.943,0.398l0.872-3.186
			l-1.943,0.448l1.829-6.453l-2-0.479L456.924,182.769z"/>
		<path fill="#F3FEFF" d="M495.252,144.787c-3.479,4.612-9.122,12.083-10.246,14.889c-0.101,0.248-0.218,0.499-0.35,0.753l0,0l0,0
			c-1.636,3.132-5.606,6.59-6.911,7.675l-2.309,3.149l3.091-1.087l-5.805,6.379c0,0,4.976-3.277,5.438-3.859
			c0.463-0.583,2.279-1.459,2.279-1.459s3.729-3.363,4.261-3.667c0.534-0.306-0.02,5.428-0.02,5.428s-0.921,1.959-1.268,2.595
			c-0.346,0.635-3.529,6.875-4.134,7.696c-0.604,0.822,2.849-1.626,2.849-1.626l3.364-2.795l-1.354,3.84l-0.122,1.104l2.615,0.22
			c0,0,0.606,0.769,0.421,1.233c-0.186,0.464-1.508,5.601-1.775,6.15c-0.265,0.55,4.915-3.124,4.915-3.124
			s-6.988,16.774-7.665,17.319c-0.675,0.544,10.303-14.643,10.303-14.643s1.021-0.96,1.199-2.079
			c0.177-1.117,0.958-1.821,0.958-1.821l-1.005-1.498l-0.153-0.987c0,0,0.254-1.777,0.617-2.344
			c0.364-0.566-1.729-0.366-1.729-0.366l5.672-10.627l-2.986,0.708c0,0,0.431-2.675,0.615-3.139
			c0.187-0.465-4.724,3.453-4.724,3.453s5.85-14.852,5.76-15.197s-2.797,1.039-2.797,1.039l-0.328-2.044l1.033-3.498
			c0,0-2.928,2.507-3.032,2.886C491.821,155.828,494.843,145.333,495.252,144.787z"/>
		<path fill="#F3FEFF" d="M669.913,159.721c-13.472-1.605-37.354-7.035-39.169-7.351c-1.813-0.313-9.734-1.617-15.163-3.329
			c-5.427-1.712-6.524-2.605-11.724-3.436c-4.7-0.751-9.801-1.686-11.475-1.624l12.73,4.733l-2.622,0.143l3.556,1.875l8.881,3.096
			l5.946,2.422l-11.149-1.203l4.179,1.917l18.582,3.634l-2.416,0.145l1.773,1.118l-0.999,0.093l-1.271,0.027l-4.371-0.69l-5.578-1
			l-2.187-0.545l9.462,4.338l9.92,4.732l9.878,4.958l16.374,3.601l9.274-3.263l4.345,0.589l13.271,0.71l3.479,0.66
			c-1.667-1.69-3.194-3.332-4.665-4.882l-13.654-10.274C673.538,160.355,671.82,159.948,669.913,159.721z"/>
		<path fill="#F3FEFF" d="M576.282,154.926c-0.25-0.134-20.025-5.318-20.836-5.374h-0.021c0,0,9.85,4.74,9.341,4.751
			c-0.508,0.011-4.084,0.021-3.155,0.446c0.929,0.427,2.448,1.551,2.448,1.551s2.134,0.735,2.027,1.113
			c-0.106,0.379-0.235,1.847-0.235,1.847s-0.008,0.363,0.876,1.013c0.885,0.651,1.332,0.793,2.895,1.693
			c1.563,0.899,4.2,2.781,4.79,3.479c0.59,0.699-9.214-0.437-9.214-0.437s8.532,4.891,10.582,4.914
			c2.051,0.023,3.146-0.878,6.324,0.334c3.178,1.213,5.588,1.957,5.588,1.957l-8.567-5.156l3.521-0.218c0,0,2.936,0.674,2.533,0.307
			c-0.401-0.368-6.396-3.359-6.654-3.969c-0.261-0.607-2.959-2.334-2.959-2.334l2.049-0.771l3.924,0.15l-3.753-2.638
			c0,0,4.156,0.257,4.683,0.313c0.525,0.059,2.266,0.063,2.266,0.063l-7.967-2.81c-0.001,0-0.002-0.001-0.004-0.001
			C576.575,155.086,576.419,155.001,576.282,154.926z"/>
		<path fill="#F3FEFF" d="M465.41,182.715l-2.457,3.332l0.041,1.73l-1.161,2.614l2.482-0.879c0,0-1.083,1.577-1.724,2.248
			c0.84-0.669,2.985-2.31,2.985-2.31s-2.231,5.177-1.873,4.792c0.361-0.387,2.476-4.64,2.476-4.64s1.919-2.449,2.257-2.721
			c0.339-0.273-2.931,0.518-3.826,1.208c-0.895,0.688,4.723-6.022,4.994-6.355c0.27-0.334,0.579-1.506,0.226-1.483
			c-0.351,0.021-1.909,0.712-1.909,0.712l0.424-2.892l-2.13,0.461l8.479-8.087l-6.701,4.501l-3.969-0.508
			c-0.229,0.41-0.447,0.789-0.658,1.143c0.267-0.071,0.433-0.104,0.474-0.095c0.357,0.098-1.014,2.589-1.146,2.863
			c-0.133,0.275,1.365-1.235,1.557-1.087c0.193,0.148,0.357,1.569,0.262,2.381s-0.239,1.63-0.239,1.63s1.279-0.392,1.006-0.058
			c-0.27,0.334-3.722,4.554-3.416,4.359c0.309-0.195,1.301-0.901,1.668-1.25C463.899,183.976,465.41,182.715,465.41,182.715z"/>
	</g>
	<g>
		<path fill="#b8eded" d="M871.173,351.646c-5.498-12.401-13.021-35.711-13.677-37.432s-3.579-9.197-4.877-14.738
			c-1.299-5.542-1.092-6.94-3.032-11.834c-1.938-4.895-3.937-10.327-4.72-11.025c-0.784-0.696-6.258-3.216-11.831-4.44
			c-5.572-1.228-5.624-2.814-5.654-3.676c-0.013-0.288-5.808-20.479-6.026-20.679c-1.327-1.192-7.113-1.656-7.113-1.656
			s-0.828-7.805-1.718-8.396c-0.893-0.59-2.667-0.586-3.266-1.769c-0.6-1.184-2.311-8.393-2.433-10.652s-0.849-6.888-0.849-6.888
			s-4.533-24.283-6.307-24.278c-1.775,0.004-18.404-2.311-22.595-1.655c-4.189,0.654-11.466-2.128-11.466-2.128l-12.287-8.419
			c-8.788,0.242-6.586-2.229-15.094-2.07c0,0-4.575-0.744-6.457-0.632c-1.881,0.112-14.14-8.364-17.254-12.071
			c-3.115-3.707-11.42,9.442-11.42,9.442l-14.215-1.049l178.512,212.452C870.067,372.484,876.523,363.725,871.173,351.646z"/>
		<path fill="#F3FEFF" d="M806.104,218.447c0,0-3.408-18.255-5.471-23.107c-0.521-0.739-0.838-1.17-0.838-1.17
			s0.649,14.838,0.147,13.797c-0.502-1.04-2.749-3.271-3.002-3.016c-0.251,0.254-1.417,4.523-1.417,4.523l-2.506-0.986l-1.877-1.899
			c0,0,3.181,11.553,2.841,14.145c-0.338,2.592-1.304,2.442-1.899,2.62c-0.595,0.181-0.676-0.583-0.959,0.967
			c-0.281,1.552,0.028,2.364-0.271,3.229c-0.3,0.865-1.486,1.782-1.486,1.782l-1.261-0.836c0,0-1.416-1.242-1.563-0.53
			c-0.148,0.712-0.716,3.253-1.019,5.667c-0.303,2.416-1.849,8.896-1.849,8.896l-1.059,5.287c0,0,4.615-10.706,4.889-11.826
			c0.271-1.116,1.064-2.06,1.064-2.06s3.392,12.08,3.436,10.911c0.043-1.169,0.204-3.861,0.204-3.861s0.592,1.37,0.691,0.988
			c0.1-0.381,0.167-1.577,0.437-2.198c0.269-0.624,2.03-10.064,2.03-10.064s0.96,3.25,1.085,3.122
			c0.126-0.128,0.775-1.907,0.775-1.907s3.458-0.821,3.543-0.555c0.083,0.267,0.807,2.349,0.953,4.239
			c0.145,1.894,0.597,7.203,0.697,7.875c0.099,0.673,0.187,2.553,0.187,2.553s0.7-11.814,0.901-12.019
			c0.202-0.204,2.108,4.339,2.318,4.479c0.21,0.14,0.633-3.241,0.979-2.886c0.344,0.354,1.182,1.407,1.182,1.407l1.396-0.027
			c-0.599-1.185-2.312-8.393-2.432-10.652C806.831,223.075,806.104,218.447,806.104,218.447z"/>
		<path fill="#F3FEFF" d="M742.536,180.128c-1.203-0.35-2.792-0.641-5.323-0.774c0,0-4.616-1.062-6.536-1.088
			c-0.989-0.014-4.649-2.458-8.371-5.349l-7.841-3.415l5.327,4.487l6.281,3.155l-2.021-0.179l4.329,2.66l-9.937-2.66l2.221,1.9
			l-1.535,0.393l-10.848-2.737l5.055,3.022l4.686,1.896l2.839,1.769l-8.393-1.293l0.926,0.389l4.739,2.438l3.225,2.094l-8.005-1.429
			l2.464,1.106l-0.394,0.598l-6.255-0.497l10.771,3.518l-1.662-1.462l10.133,0.989l1.741-0.305l-1.256-1.284l-0.824-0.606
			l3.185-0.877l-1.377-1.442l6.482-1.722l-0.609-1.963L742.536,180.128z"/>
		<path fill="#F3FEFF" d="M794.763,193.695c-5.742-0.636-15.047-1.675-18.033-1.209c-0.264,0.041-0.54,0.068-0.826,0.084l0,0l0,0
			c-3.527,0.192-8.527-1.457-10.128-2.023l-3.887-0.377l2.513,2.102l-8.448-1.733c0,0,5.358,2.604,6.095,2.706
			c0.737,0.101,2.418,1.215,2.418,1.215s4.795,1.487,5.328,1.791c0.535,0.303-4.679,2.754-4.679,2.754s-2.153,0.208-2.877,0.233
			c-0.723,0.027-7.713,0.475-8.729,0.375c-1.017-0.1,2.852,1.618,2.852,1.618l4.122,1.466l-3.993,0.797l-1.012,0.459l1.145,2.359
			c0,0-0.35,0.915-0.845,0.992c-0.493,0.078-5.585,1.562-6.195,1.614c-0.606,0.053,5.195,2.632,5.195,2.632
			s-17.991,2.554-18.806,2.25c-0.813-0.303,17.851,1.384,17.851,1.384s1.348,0.387,2.399-0.031c1.051-0.418,2.055-0.105,2.055-0.105
			l0.775-1.629l0.771-0.636c0,0,1.659-0.689,2.331-0.665c0.673,0.022-0.568-1.676-0.568-1.676l12.032-0.548l-2.133-2.206
			c0,0,2.521-0.996,3.012-1.073c0.496-0.076-5.38-2.299-5.38-2.299s15.757-2.551,16.009-2.805c0.251-0.254-2.321-1.874-2.321-1.874
			l1.59-1.326l3.534-0.896c0,0-3.649-1.237-4.03-1.135C783.519,196.383,794.086,193.622,794.763,193.695z"/>
		<path fill="#F3FEFF" d="M871.088,351.507c-5.497-12.403-13.021-35.712-13.676-37.435c-0.656-1.72-3.579-9.195-4.878-14.737
			c-1.298-5.541-1.091-6.941-3.031-11.834c-1.754-4.427-3.555-9.289-4.461-10.696l2.429,13.363l-1.461-2.182l0.203,4.015
			l1.873,9.217l0.953,6.35l-4.657-10.203l0.483,4.572l6.361,17.833l-1.357-2.003l-0.056,2.096l-0.588-0.812l-0.674-1.079
			l-1.638-4.111l-1.987-5.307l-0.647-2.158l1.1,10.351l0.993,10.946l0.779,11.025l5.266,15.917l7.538,6.31l1.712,4.037l6.166,11.774
			l1.207,3.328c0.604-2.296,1.234-4.447,1.816-6.503l1.865-16.986C872.393,354.948,871.865,353.262,871.088,351.507z"/>
		<path fill="#F3FEFF" d="M827.411,268.548c-0.012-0.283-5.649-19.936-6.016-20.66l-0.011-0.02c0,0,0.952,10.89,0.683,10.458
			c-0.269-0.432-2.104-3.5-1.995-2.485c0.107,1.017-0.083,2.896-0.083,2.896s0.457,2.209,0.078,2.313
			c-0.38,0.102-1.708,0.74-1.708,0.74s-0.315,0.178-0.424,1.271s-0.002,1.55,0.021,3.354c0.024,1.804-0.246,5.03-0.546,5.895
			c-0.3,0.865-4.327-8.146-4.327-8.146s0.149,9.833,1.177,11.607c1.025,1.776,2.359,2.256,2.939,5.609
			c0.579,3.351,1.17,5.804,1.17,5.804l0.061-10l1.984,2.917c0,0,0.919,2.869,1.029,2.335c0.112-0.533-0.375-7.214,0.018-7.748
			c0.389-0.535,0.497-3.735,0.497-3.735l1.707,1.367l1.874,3.451l0.353-4.572c0,0,1.9,3.704,2.12,4.187
			c0.219,0.482,1.104,1.979,1.104,1.979l-1.651-8.285c-0.001,0-0.001-0.002,0-0.004
			C827.424,268.882,827.415,268.704,827.411,268.548z"/>
		<path fill="#F3FEFF" d="M746.915,187.398l-4.118-0.411l-1.468,0.918l-2.84,0.338l2.022,1.685c0,0-1.908-0.126-2.813-0.335
			c1.004,0.38,3.512,1.388,3.512,1.388s-5.592,0.724-5.077,0.836c0.516,0.113,5.252-0.239,5.252-0.239s3.085,0.398,3.492,0.551
			c0.407,0.151-1.941-2.256-2.992-2.673c-1.049-0.417,7.589,0.985,8.014,1.05c0.425,0.062,1.59-0.271,1.392-0.563
			c-0.196-0.291-1.587-1.278-1.587-1.278l2.702-1.11l-1.481-1.597l11.281,3.163l-7.291-3.465l-1.589-3.672
			c-0.47,0.014-0.906,0.02-1.317,0.018c0.196,0.191,0.311,0.318,0.321,0.358c0.1,0.357-2.741,0.45-3.047,0.477
			c-0.305,0.026,1.76,0.543,1.729,0.783c-0.029,0.243-1.167,1.108-1.914,1.44c-0.746,0.333-1.524,0.626-1.524,0.626
			s0.99,0.899,0.563,0.836c-0.425-0.062-5.816-0.876-5.492-0.712c0.325,0.165,1.438,0.659,1.926,0.796
			C745.061,186.742,746.915,187.398,746.915,187.398z"/>
	</g>
	<g>
		<path fill="#b8eded" d="M815.299,627.304c7.599-11.239,23.368-29.979,24.479-31.447c1.11-1.47,5.898-7.913,9.907-11.952
			c4.009-4.04,5.305-4.606,8.424-8.847c3.121-4.24,6.667-8.815,6.844-9.85c0.176-1.034-0.593-7.011-2.51-12.385
			c-1.916-5.376-0.597-6.262,0.117-6.744c0.238-0.161,14.281-15.784,14.333-16.075c0.308-1.759-2.367-6.909-2.367-6.909
			s6.175-4.841,6.205-5.909c0.027-1.07-0.917-2.571-0.233-3.706c0.687-1.135,5.89-6.409,7.741-7.712
			c1.853-1.303,5.39-4.373,5.39-4.373s18.182-16.724,17.235-18.225c-0.944-1.502-7.802-16.827-10.581-20.031
			c-2.776-3.206-4.276-10.852-4.276-10.852l0.62-14.881c-4.866-7.32-1.604-6.766-6.25-13.895c0,0-1.796-4.272-2.89-5.81
			c-1.093-1.533-0.408-16.422,1.083-21.029c1.49-4.607-14.063-4.673-14.063-4.673l-6.649-12.607L782.434,643.41
			C797.049,637.42,807.898,638.245,815.299,627.304z"/>
		<path fill="#F3FEFF" d="M893.708,501.493c0,0,13.668-12.57,16.688-16.895c0.351-0.833,0.548-1.33,0.548-1.33
			s-12.233,8.42-11.617,7.442c0.615-0.978,1.314-4.064,0.964-4.145c-0.349-0.078-4.587,1.197-4.587,1.197l-0.493-2.646l0.615-2.599
			c0,0-8.106,8.823-10.483,9.911c-2.376,1.087-2.763,0.188-3.229-0.221c-0.468-0.41,0.135-0.884-1.329-0.301
			s-1.988,1.277-2.88,1.481c-0.893,0.205-2.299-0.315-2.299-0.315l0.04-1.512c0,0,0.302-1.859-0.379-1.606
			c-0.683,0.253-3.137,1.119-5.344,2.144c-2.209,1.024-8.524,3.152-8.524,3.152l-5.042,1.906c0,0,11.523-1.766,12.617-2.129
			c1.091-0.362,2.311-0.188,2.311-0.188s-8.441,9.281-7.428,8.698s3.381-1.875,3.381-1.875s-0.847,1.229-0.471,1.111
			c0.376-0.119,1.425-0.695,2.096-0.798c0.671-0.102,9.61-3.615,9.61-3.615s-2.246,2.537-2.071,2.576s2.028-0.354,2.028-0.354
			s2.531,2.495,2.349,2.71c-0.181,0.211-1.563,1.929-3.088,3.056c-1.527,1.127-5.79,4.327-6.307,4.768
			c-0.519,0.441-2.065,1.514-2.065,1.514s10.388-5.674,10.667-5.61c0.28,0.063-2.56,4.088-2.567,4.342
			c-0.006,0.251,3.084-1.185,2.966-0.701c-0.118,0.479-0.566,1.748-0.566,1.748l0.763,1.169c0.688-1.137,5.89-6.41,7.742-7.712
			C890.171,504.565,893.708,501.493,893.708,501.493z"/>
		<path fill="#F3FEFF" d="M892.477,427.28c-0.342-1.206-0.939-2.707-2.167-4.924c0,0-1.548-4.476-2.544-6.118
			c-0.513-0.846-0.383-5.245,0.095-9.935l-1.264-8.458l-0.979,6.896l0.657,6.998l-0.921-1.809l0.042,5.08l-3.015-9.834l-0.434,2.89
			l-1.146-1.094l-3.434-10.646l0.119,5.888l0.877,4.977l0.006,3.345l-3.354-7.801l0.161,0.992l0.446,5.312l-0.063,3.845
			l-3.034-7.544l0.368,2.677l-0.718-0.017l-2.896-5.566l2.731,10.998l0.357-2.186l4.536,9.114l1.182,1.314l0.421-1.745l0.077-1.021
			l2.433,2.232l0.492-1.933l4.897,4.582l1.341-1.558L892.477,427.28z"/>
		<path fill="#F3FEFF" d="M908.676,478.751c-2.506-5.205-6.561-13.646-8.539-15.93c-0.175-0.202-0.345-0.422-0.511-0.654l0,0l0,0
			c-2.033-2.891-3.287-8.003-3.655-9.66l-1.742-3.494l-0.449,3.244l-3.011-8.081c0,0,0.633,5.925,0.938,6.602
			c0.307,0.679,0.252,2.693,0.252,2.693s1.283,4.854,1.309,5.468c0.027,0.614-4.816-2.505-4.816-2.505s-1.318-1.717-1.725-2.315
			c-0.406-0.598-4.493-6.288-4.948-7.2c-0.454-0.913,0.142,3.275,0.142,3.275l0.942,4.271l-2.793-2.963l-0.926-0.615l-1.395,2.223
			c0,0-0.961,0.188-1.288-0.188c-0.328-0.377-4.287-3.907-4.654-4.396c-0.367-0.487,0.523,5.8,0.523,5.8
			s-11.708-13.896-11.883-14.749c-0.174-0.85,8.294,15.867,8.294,15.867s0.386,1.347,1.299,2.019
			c0.912,0.669,1.181,1.686,1.181,1.686l1.792-0.208l0.946,0.317c0,0,1.466,1.04,1.802,1.623c0.337,0.583,1.119-1.371,1.119-1.371
			l6.847,9.909l0.739-2.979c0,0,2.181,1.607,2.508,1.984c0.328,0.38-0.905-5.78-0.905-5.78s10.52,12.004,10.869,12.083
			c0.348,0.078,0.357-2.962,0.357-2.962l1.967,0.646l2.635,2.521c0,0-0.887-3.75-1.176-4.02
			C900.433,470.644,908.378,478.137,908.676,478.751z"/>
		<path fill="#F3FEFF" d="M815.372,627.157c7.601-11.238,23.369-29.979,24.481-31.447c1.11-1.471,5.897-7.912,9.906-11.952
			s5.306-4.606,8.425-8.849c2.823-3.834,5.99-7.938,6.702-9.456l-10.04,9.147l1.075-2.396l-3.295,2.302l-6.82,6.476l-4.877,4.178
			l6.178-9.358l-3.619,2.834l-11.744,14.852l0.979-2.214l-1.807,1.064l0.377-0.93l0.557-1.144l2.617-3.568l3.443-4.5l1.486-1.691
			l-8.191,6.421l-8.753,6.648l-8.933,6.508l-10.701,12.905l-1.35,9.737l-2.516,3.593l-6.711,11.472l-2.181,2.789
			c2.268-0.707,4.425-1.313,6.477-1.909l15.39-7.43C813.147,630.09,814.298,628.747,815.372,627.157z"/>
		<path fill="#F3FEFF" d="M862.535,546.13c0.234-0.159,13.902-15.362,14.323-16.059l0.01-0.02c0,0-8.726,6.583-8.503,6.125
			c0.225-0.456,1.853-3.64,1.049-3.008c-0.804,0.629-2.5,1.466-2.5,1.466s-1.63,1.559-1.918,1.291
			c-0.288-0.269-1.533-1.056-1.533-1.056s-0.319-0.174-1.303,0.314s-1.315,0.82-2.832,1.797c-1.516,0.979-4.396,2.459-5.286,2.663
			c-0.893,0.204,4.609-7.989,4.609-7.989s-8.256,5.342-9.216,7.155c-0.961,1.812-0.661,3.196-3.196,5.467
			c-2.533,2.27-4.299,4.07-4.299,4.07l8.509-5.252l-1.42,3.229c0,0-1.944,2.302-1.435,2.112c0.511-0.188,5.918-4.146,6.577-4.097
			c0.659,0.047,3.431-1.561,3.431-1.561l-0.254,2.175l-1.932,3.419l4.063-2.128c0,0-2.132,3.576-2.424,4.019
			c-0.293,0.44-1.093,1.985-1.093,1.985l6.147-5.795c0,0,0.001-0.002,0.003-0.003C862.26,546.317,862.406,546.216,862.535,546.13z"
			/>
		<path fill="#F3FEFF" d="M888.636,434.849l-1.837-3.71l-1.557-0.758l-1.792-2.229l-0.355,2.607c0,0-0.905-1.685-1.208-2.562
			c0.209,1.054,0.685,3.712,0.685,3.712s-3.579-4.355-3.401-3.859c0.178,0.498,2.988,4.325,2.988,4.325s1.298,2.827,1.386,3.253
			c0.087,0.427,0.883-2.844,0.68-3.955c-0.203-1.11,3.188,6.957,3.359,7.352c0.174,0.394,1.073,1.204,1.217,0.881
			c0.142-0.321,0.242-2.024,0.242-2.024l2.375,1.7l0.567-2.103l3.302,11.242l-0.93-8.021l2.27-3.295
			c-0.26-0.391-0.496-0.76-0.713-1.107c-0.058,0.269-0.104,0.433-0.133,0.464c-0.25,0.272-1.836-2.086-2.02-2.331
			c-0.185-0.244,0.473,1.78,0.253,1.881c-0.222,0.104-1.559-0.401-2.236-0.857c-0.678-0.455-1.34-0.961-1.34-0.961
			s-0.237,1.316-0.41,0.923s-2.342-5.396-2.31-5.034c0.033,0.361,0.205,1.568,0.347,2.056
			C888.208,432.928,888.636,434.849,888.636,434.849z"/>
	</g>
	<g>
		<path fill="#b8eded" d="M555.742,724.306c13.563,0.354,37.845,3.557,39.681,3.701c1.836,0.144,9.844,0.711,15.405,1.916
			c5.563,1.203,6.739,1.989,11.99,2.337c5.254,0.348,11.019,0.873,11.985,0.466c0.966-0.41,5.589-4.272,9.085-8.782
			c3.5-4.509,4.956-3.873,5.747-3.531c0.265,0.113,20.99,3.538,21.264,3.427c1.647-0.688,4.549-5.714,4.549-5.714
			s7.403,2.599,8.32,2.048c0.916-0.554,1.673-2.157,2.997-2.191c1.326-0.033,8.572,1.513,10.667,2.372
			c2.094,0.859,6.586,2.188,6.586,2.188s23.881,6.319,24.637,4.716c0.758-1.604,9.981-15.634,11.188-19.699
			c1.207-4.066,6.841-9.446,6.841-9.446l12.875-7.487c3.551-8.041,4.839-4.992,8.345-12.746c0,0,2.634-3.813,3.34-5.563
			c0.705-1.748,13.621-9.185,18.307-10.408c4.684-1.224-3.633-14.366-3.633-14.366l7.046-12.391l-268.485,70.129
			C537.393,714.369,542.536,723.958,555.742,724.306z"/>
		<path fill="#F3FEFF" d="M703.977,722.66c0,0,17.952,4.752,23.221,4.97c0.892-0.152,1.416-0.254,1.416-0.254
			s-13.682-5.777-12.525-5.784c1.153-0.009,4.133-1.081,4.011-1.418c-0.123-0.337-3.479-3.223-3.479-3.223l1.966-1.841l2.521-0.879
			c0,0-11.8-2.084-13.996-3.501c-2.195-1.417-1.646-2.227-1.552-2.84c0.094-0.615,0.816-0.361-0.462-1.281
			c-1.28-0.921-2.147-0.989-2.799-1.63c-0.653-0.643-0.973-2.107-0.973-2.107l1.295-0.778c0,0,1.729-0.747,1.149-1.187
			c-0.58-0.438-2.632-2.042-4.683-3.351c-2.053-1.311-7.245-5.486-7.245-5.486l-4.322-3.222c0,0,7.691,8.761,8.586,9.486
			c0.893,0.725,1.404,1.846,1.404,1.846s-12.367-2.118-11.33-1.577c1.037,0.54,3.399,1.84,3.399,1.84s-1.49-0.052-1.189,0.202
			c0.303,0.252,1.354,0.826,1.801,1.335c0.447,0.512,8.22,6.153,8.22,6.153s-3.347-0.526-3.286-0.358
			c0.063,0.169,1.392,1.519,1.392,1.519s-0.741,3.477-1.021,3.438c-0.274-0.039-2.467-0.278-4.237-0.957
			c-1.772-0.682-6.765-2.552-7.413-2.749c-0.651-0.199-2.388-0.926-2.388-0.926s10.374,5.7,10.471,5.969
			c0.098,0.271-4.823,0.043-5.041,0.174c-0.215,0.13,2.659,1.962,2.187,2.121c-0.467,0.159-1.777,0.464-1.777,0.464l-0.574,1.272
			c1.328-0.033,8.573,1.512,10.667,2.373C699.484,721.333,703.977,722.66,703.977,722.66z"/>
		<path fill="#F3FEFF" d="M765.857,681.673c0.832-0.938,1.776-2.249,2.983-4.478c0,0,2.938-3.714,3.786-5.438
			c0.437-0.888,4.214-3.146,8.424-5.269l6.447-5.618l-6.34,2.889l-5.544,4.32l1.028-1.751l-4.259,2.771l6.665-7.834l-2.668,1.19
			l0.304-1.557l7.125-8.625l-4.898,3.271l-3.723,3.419l-2.815,1.805l4.77-7.025l-0.75,0.669l-4.236,3.237l-3.273,2.016l4.724-6.618
			l-2.058,1.751l-0.371-0.612l3.133-5.438l-7.798,8.224l2.034-0.874l-5.24,8.729l-0.472,1.702l1.696-0.584l0.901-0.482l-0.572,3.251
			l1.895-0.625l-1.227,6.595l2.035,0.292L765.857,681.673z"/>
		<path fill="#F3FEFF" d="M731.199,723.031c3.038-4.914,7.968-12.874,8.828-15.771c0.077-0.256,0.17-0.518,0.278-0.782l0,0l0,0
			c1.34-3.271,4.974-7.078,6.173-8.281l2.007-3.349l-2.976,1.368l5.188-6.888c0,0-4.651,3.724-5.058,4.345
			c-0.408,0.624-2.134,1.661-2.134,1.661s-3.401,3.695-3.904,4.048s-0.482-5.407-0.482-5.407s0.737-2.037,1.023-2.7
			c0.285-0.665,2.881-7.172,3.405-8.047c0.524-0.873-2.687,1.883-2.687,1.883l-3.092,3.094l0.994-3.948l0.02-1.11l-2.623,0.021
			c0,0-0.676-0.707-0.533-1.188c0.141-0.479,0.984-5.716,1.198-6.288c0.213-0.571-4.604,3.563-4.604,3.563s5.41-17.349,6.033-17.954
			c0.623-0.604-8.907,15.531-8.907,15.531s-0.927,1.051-1.001,2.182c-0.073,1.128-0.786,1.9-0.786,1.9l1.14,1.398l0.243,0.969
			c0,0-0.088,1.795-0.398,2.393c-0.311,0.599,1.758,0.205,1.758,0.205l-4.666,11.104l2.908-0.979c0,0-0.182,2.701-0.322,3.181
			c-0.145,0.481,4.384-3.874,4.384-3.874s-4.454,15.327-4.333,15.664c0.122,0.335,2.689-1.293,2.689-1.293l0.515,2.006l-0.706,3.577
			c0,0,2.683-2.768,2.754-3.154C733.596,711.722,731.558,722.449,731.199,723.031z"/>
		<path fill="#F3FEFF" d="M555.904,724.288c13.563,0.354,37.845,3.558,39.682,3.703c1.836,0.145,9.842,0.711,15.404,1.914
			c5.563,1.205,6.738,1.991,11.991,2.338c4.75,0.314,9.915,0.773,11.577,0.559l-13.113-3.538l2.597-0.384l-3.713-1.538l-9.129-2.263
			l-6.146-1.86l11.213,0.168l-4.336-1.523l-18.838-1.903l2.392-0.366l-1.869-0.948l0.985-0.184l1.264-0.146l4.416,0.285l5.646,0.479
			l2.226,0.342l-9.82-3.447l-10.315-3.796l-10.292-4.025l-16.636-2.071l-8.934,4.104l-4.382-0.187l-13.28,0.521l-3.523-0.337
			c1.815,1.53,3.487,3.021,5.096,4.431l14.544,8.97C552.236,723.991,553.985,724.239,555.904,724.288z"/>
		<path fill="#F3FEFF" d="M649.579,720.418c0.261,0.11,20.431,3.445,21.243,3.427l0.022-0.001c0,0-10.245-3.812-9.739-3.869
			c0.504-0.057,4.063-0.398,3.099-0.735c-0.963-0.339-2.581-1.317-2.581-1.317s-2.19-0.534-2.12-0.921
			c0.07-0.388,0.063-1.86,0.063-1.86s-0.025-0.362-0.966-0.928c-0.942-0.566-1.4-0.668-3.039-1.42
			c-1.64-0.752-4.438-2.382-5.09-3.021c-0.653-0.642,9.214-0.416,9.214-0.416s-8.946-4.082-10.991-3.915
			c-2.043,0.164-3.05,1.163-6.328,0.249c-3.274-0.913-5.745-1.433-5.745-1.433l9.008,4.344l-3.485,0.542c0,0-2.986-0.4-2.553-0.071
			c0.434,0.328,6.679,2.756,6.993,3.337c0.315,0.581,3.161,2.053,3.161,2.053l-1.969,0.957l-3.921,0.212l3.981,2.278
			c0,0-4.163,0.13-4.691,0.12c-0.53-0.009-2.262,0.147-2.262,0.147l8.191,2.062c0-0.001,0.002,0,0.004,0.002
			C649.272,720.284,649.438,720.354,649.579,720.418z"/>
		<path fill="#F3FEFF" d="M757.411,682.511l2.139-3.545l-0.199-1.721l0.914-2.71l-2.389,1.104c0,0,0.932-1.669,1.508-2.396
			c-0.774,0.743-2.76,2.575-2.76,2.575s1.745-5.36,1.423-4.943c-0.324,0.418-2.036,4.848-2.036,4.848s-1.686,2.615-1.996,2.918
			c-0.313,0.302,2.871-0.786,3.699-1.557c0.826-0.77-4.146,6.433-4.387,6.789c-0.237,0.356-0.437,1.553-0.088,1.499
			c0.349-0.055,1.837-0.887,1.837-0.887l-0.154,2.916l2.077-0.652l-7.696,8.835l6.258-5.102l3.998,0.14
			c0.188-0.431,0.374-0.827,0.55-1.197c-0.258,0.095-0.421,0.144-0.462,0.138c-0.366-0.063,0.769-2.671,0.877-2.957
			c0.106-0.287-1.246,1.357-1.449,1.227c-0.207-0.13-0.5-1.529-0.48-2.347c0.019-0.816,0.088-1.646,0.088-1.646
			s-1.236,0.509-0.997,0.15c0.237-0.356,3.286-4.879,2.999-4.655c-0.288,0.223-1.212,1.017-1.545,1.397
			C758.801,681.115,757.411,682.511,757.411,682.511z"/>
	</g>
	<g>
		<path fill="#b8eded" d="M335.698,565.599c7.413,11.363,18.57,33.166,19.493,34.76c0.924,1.593,5.006,8.505,7.174,13.766
			c2.169,5.264,2.19,6.679,4.889,11.196c2.697,4.521,5.54,9.564,6.425,10.128s6.689,2.173,12.388,2.489
			c5.698,0.318,6.003,1.879,6.171,2.723c0.058,0.283,9.011,19.286,9.259,19.447c1.501,0.965,7.286,0.497,7.286,0.497
			s2.067,7.569,3.041,8.012c0.977,0.439,2.727,0.151,3.506,1.223c0.78,1.071,3.624,7.914,4.106,10.126
			c0.481,2.212,1.941,6.663,1.941,6.663s8.363,23.244,10.113,22.955c1.75-0.288,18.536-0.665,22.567-1.984
			c4.032-1.316,11.66,0.266,11.66,0.266l13.477,6.344c8.635-1.646,6.857,1.146,15.23-0.373c0,0,4.635,0.002,6.475-0.409
			c1.838-0.413,15.296,5.991,18.964,9.153c3.668,3.158,9.761-11.151,9.761-11.151l14.199-1.24L333.598,529.061
			C333.452,544.854,328.483,554.532,335.698,565.599z"/>
		<path fill="#F3FEFF" d="M421.256,686.66c0,0,6.286,17.476,9.101,21.935c0.632,0.646,1.014,1.021,1.014,1.021
			s-3.017-14.542-2.354-13.595c0.662,0.946,3.237,2.788,3.446,2.496c0.207-0.291,0.675-4.692,0.675-4.692l2.631,0.57l2.156,1.575
			c0,0-4.989-10.895-5.07-13.507c-0.08-2.611,0.897-2.619,1.456-2.891c0.56-0.272,0.762,0.467,0.792-1.108
			c0.031-1.576-0.405-2.329-0.249-3.229c0.157-0.901,1.183-1.997,1.183-1.997l1.378,0.622c0,0,1.598,1,1.629,0.273
			c0.032-0.728,0.185-3.326,0.098-5.756c-0.087-2.435,0.399-9.08,0.399-9.08l0.198-5.388c0,0-2.842,11.307-2.931,12.456
			c-0.089,1.146-0.722,2.203-0.722,2.203s-5.282-11.382-5.139-10.221c0.145,1.161,0.417,3.844,0.417,3.844s-0.804-1.258-0.841-0.865
			c-0.037,0.394,0.088,1.584-0.078,2.241c-0.167,0.658-0.395,10.259-0.395,10.259s-1.468-3.053-1.571-2.906
			c-0.104,0.146-0.459,2.007-0.459,2.007s-3.282,1.363-3.409,1.112c-0.125-0.249-1.172-2.188-1.619-4.03
			c-0.446-1.846-1.743-7.017-1.949-7.662c-0.205-0.649-0.593-2.49-0.593-2.49s1.201,11.775,1.035,12.008
			c-0.166,0.234-2.774-3.944-3.006-4.051c-0.229-0.104-0.104,3.303-0.503,3.005c-0.396-0.294-1.393-1.199-1.393-1.199l-1.373,0.251
			c0.78,1.073,3.625,7.914,4.105,10.127C419.797,682.208,421.256,686.66,421.256,686.66z"/>
		<path fill="#F3FEFF" d="M490.139,714.308c1.245,0.15,2.858,0.184,5.378-0.088c0,0,4.726,0.309,6.626,0.026
			c0.979-0.145,4.983,1.682,9.121,3.939l8.286,2.116l-5.979-3.578l-6.706-2.108l2.024-0.146l-4.698-1.934l10.233,1.035l-2.496-1.52
			l1.454-0.634l11.145,0.965l-5.473-2.174l-4.928-1.122l-3.085-1.291l8.49-0.067l-0.977-0.236l-5.069-1.646l-3.518-1.55l8.13,0.129
			l-2.61-0.698l0.293-0.653l6.255-0.511l-11.195-1.747l1.874,1.178l-10.159,0.646l-1.67,0.58l1.445,1.063l0.909,0.468l-3.001,1.377
			l1.591,1.202l-6.124,2.736l0.916,1.841L490.139,714.308z"/>
		<path fill="#F3FEFF" d="M436.413,709.277c5.771-0.291,15.121-0.755,17.994-1.691c0.254-0.084,0.523-0.155,0.803-0.217l0,0l0,0
			c3.451-0.755,8.649,0.072,10.321,0.376l3.896-0.25l-2.816-1.673l8.617,0.359c0,0-5.707-1.715-6.449-1.695
			c-0.744,0.021-2.58-0.812-2.58-0.812s-4.972-0.7-5.547-0.916c-0.577-0.214,4.177-3.469,4.177-3.469s2.095-0.55,2.804-0.69
			c0.708-0.144,7.538-1.702,8.557-1.769c1.017-0.063-3.075-1.141-3.075-1.141l-4.303-0.787l3.814-1.426l0.927-0.615l-1.508-2.146
			c0,0,0.198-0.959,0.674-1.114c0.475-0.157,5.264-2.438,5.855-2.586c0.591-0.148-5.549-1.767-5.549-1.767
			s17.351-5.401,18.203-5.232c0.851,0.169-17.842,1.492-17.842,1.492s-1.393-0.167-2.364,0.415c-0.97,0.581-2.011,0.433-2.011,0.433
			l-0.503,1.733l-0.66,0.75c0,0-1.526,0.945-2.194,1.029c-0.668,0.085,0.83,1.563,0.83,1.563l-11.79,2.468l2.458,1.836
			c0,0-2.327,1.388-2.802,1.542c-0.478,0.155,5.679,1.408,5.679,1.408s-15.144,5.04-15.353,5.332
			c-0.207,0.291,2.591,1.478,2.591,1.478l-1.357,1.563l-3.345,1.451c0,0,3.8,0.637,4.16,0.475
			C447.083,704.823,437.096,709.24,436.413,709.277z"/>
		<path fill="#F3FEFF" d="M346.68,582.46c5.334,8.596,13.24,25.171,13.898,26.38c0.66,1.209,3.581,6.447,5.091,10.462
			s1.485,5.107,3.419,8.535c1.745,3.098,3.568,6.521,4.39,7.453l-3.11-9.784l1.312,1.438l-0.536-3.019l-2.293-6.722l-1.327-4.68
			l4.49,7.05l-0.801-3.399l-6.506-12.591l1.217,1.317l-0.158-1.6l0.521,0.527l0.612,0.719l1.628,2.877l2.008,3.731l0.694,1.541
			l-1.817-7.697l-1.795-8.166l-1.641-8.257l-5.494-11.3l-6.294-3.658l-1.678-2.812l-5.779-8.017l-1.229-2.348
			c-0.236,1.836-0.509,3.564-0.75,5.214l0.213,13.184C345.365,580.043,345.926,581.243,346.68,582.46z"/>
		<path fill="#F3FEFF" d="M392.201,640.618c0.057,0.276,8.77,18.771,9.246,19.43l0.015,0.018c0,0-2.685-10.596-2.349-10.213
			c0.333,0.383,2.636,3.118,2.365,2.134c-0.268-0.984-0.381-2.874-0.381-2.874s-0.804-2.105-0.446-2.269
			c0.358-0.161,1.567-1.005,1.567-1.005s0.284-0.227,0.215-1.321c-0.068-1.097-0.246-1.531-0.559-3.308
			c-0.312-1.777-0.562-5.006-0.403-5.905c0.158-0.901,5.577,7.347,5.577,7.347s-1.723-9.682-3.021-11.269
			c-1.296-1.591-2.689-1.851-3.799-5.066s-2.084-5.543-2.084-5.543l1.541,9.881l-2.425-2.562c0,0-1.366-2.685-1.392-2.142
			c-0.023,0.545,1.526,7.063,1.227,7.651c-0.299,0.59,0.106,3.768,0.106,3.768l-1.904-1.076l-2.402-3.107l0.386,4.572
			c0,0-2.471-3.354-2.764-3.794c-0.293-0.441-1.406-1.777-1.406-1.777l2.957,7.914c0.001-0.001,0.001,0.001,0.001,0.003
			C392.136,640.29,392.173,640.466,392.201,640.618z"/>
		<path fill="#F3FEFF" d="M484.651,707.831l4.131-0.255l1.303-1.14l2.748-0.788l-2.265-1.339c0,0,1.903-0.182,2.829-0.12
			c-1.052-0.216-3.688-0.808-3.688-0.808s5.402-1.609,4.877-1.641c-0.527-0.027-5.146,1.079-5.146,1.079s-3.11,0.101-3.536,0.015
			c-0.427-0.086,2.277,1.916,3.382,2.16c1.103,0.243-7.648,0.241-8.078,0.246c-0.43,0.008-1.526,0.522-1.284,0.779
			c0.241,0.256,1.771,1.009,1.771,1.009l-2.487,1.529l1.718,1.339l-11.644-1.316l7.752,2.253l2.157,3.37
			c0.46-0.088,0.894-0.164,1.298-0.229c-0.225-0.157-0.357-0.266-0.376-0.303c-0.155-0.338,2.635-0.884,2.933-0.957
			c0.296-0.074-1.825-0.256-1.832-0.496c-0.012-0.244,0.974-1.28,1.656-1.729c0.684-0.449,1.405-0.862,1.405-0.862
			s-1.122-0.729-0.69-0.733c0.429-0.009,5.882-0.067,5.535-0.178s-1.525-0.419-2.029-0.478
			C486.589,708.183,484.651,707.831,484.651,707.831z"/>
	</g>
	<path fill="#F3FEFF" d="M292.255,468.751c0,0-8.892,16.303-10.358,21.366c-0.063,0.903-0.09,1.438-0.09,1.438
		s8.87-11.913,8.602-10.789s0.065,4.272,0.421,4.234c0.355-0.039,3.958-2.611,3.958-2.611l1.32,2.346l0.255,2.661
		c0,0,4.833-10.966,6.733-12.76c1.899-1.796,2.553-1.07,3.127-0.831c0.575,0.234,0.156,0.878,1.354-0.146
		c1.198-1.023,1.472-1.849,2.25-2.33c0.778-0.48,2.277-0.441,2.277-0.441l0.451,1.445c0,0,0.313,1.855,0.877,1.397
		c0.563-0.458,2.61-2.069,4.369-3.75c1.761-1.681,7.053-5.729,7.053-5.729l4.16-3.431c0,0-10.341,5.385-11.259,6.079
		c-0.917,0.694-2.127,0.924-2.127,0.924s5.003-11.507,4.23-10.628c-0.771,0.878-2.598,2.864-2.598,2.864s0.407-1.436,0.088-1.203
		c-0.318,0.233-1.125,1.117-1.728,1.429c-0.602,0.313-7.933,6.52-7.933,6.52s1.309-3.125,1.131-3.106
		c-0.178,0.021-1.805,0.989-1.805,0.989s-3.2-1.549-3.097-1.81c0.103-0.259,0.858-2.33,1.94-3.889
		c1.083-1.56,4.087-5.96,4.436-6.545c0.35-0.584,1.468-2.097,1.468-2.097s-8.007,8.717-8.292,8.747
		c-0.284,0.03,1.107-4.696,1.032-4.938c-0.075-0.241-2.538,2.113-2.581,1.619c-0.043-0.492-0.027-1.838-0.027-1.838l-1.098-0.859
		c-0.285,1.296-3.511,7.965-4.846,9.794C294.616,464.702,292.255,468.751,292.255,468.751z"/>
	<path fill="#F3FEFF" d="M285.411,495.103c4.049,4.119,10.605,10.805,13.214,12.33c0.23,0.136,0.461,0.288,0.693,0.456l0,0l0,0
		c2.856,2.08,5.69,6.518,6.571,7.968l2.775,2.748l-0.62-3.218l5.453,6.682c0,0-2.507-5.403-3.015-5.946
		c-0.508-0.544-1.107-2.469-1.107-2.469s-2.776-4.184-2.998-4.756c-0.224-0.572,5.366,0.821,5.366,0.821s1.802,1.199,2.379,1.636
		c0.577,0.436,6.278,4.505,7.003,5.224s-1.188-3.057-1.188-3.057l-2.27-3.74l3.599,1.906l1.075,0.283l0.604-2.554
		c0,0,0.85-0.487,1.282-0.234c0.432,0.251,5.317,2.317,5.821,2.662c0.504,0.343-2.364-5.321-2.364-5.321s15.56,9.386,15.999,10.136
		c0.438,0.748-12.962-12.35-12.962-12.35s-0.8-1.151-1.879-1.492c-1.079-0.34-1.66-1.216-1.66-1.216l-1.629,0.772l-1,0.006
		c0,0-1.722-0.515-2.228-0.956c-0.507-0.443-0.617,1.657-0.617,1.657l-9.674-7.178l0.261,3.059c0,0-2.583-0.819-3.015-1.071
		c-0.433-0.253,2.718,5.182,2.718,5.182s-13.825-7.978-14.181-7.938c-0.355,0.039,0.615,2.92,0.615,2.92l-2.07,0.022l-3.307-1.538
		c0,0,2.047,3.265,2.407,3.426C295.823,500.121,285.89,495.587,285.411,495.103z"/>
</g>
          
   <g id="trees" class="rotate rotate-slower">
	<circle id="drugi-plan" fill="#70EF35" cx="594" cy="440" r="165.67"/>
	<g id="drzewa">
		<g>
			<g>
				<g>
					<path fill="#4B823D" d="M513.045,317.258c0,0-6.626,1.332-13.173-5.645c-6.546-6.977-17.109-27.272-18.318-36.897
						c-1.21-9.626,2.275-19.189,9.005-15.567c6.728,3.622,21.896,28.16,24.627,40.511C517.919,312.01,514.83,315.72,513.045,317.258
						z"/>
				</g>
				<path fill="#3F6D32" d="M483.044,262.04c5.075-1.884,13.063,7.991,18.07,15.507c5.009,7.516,14.601,24.808,8.938,30.229
					c-5.609,5.368-11.15,2.665-11.255,2.613c0.366,0.44,0.728,0.856,1.074,1.226c6.545,6.977,13.173,5.645,13.173,5.645
					c1.785-1.538,4.874-5.248,2.141-17.599c-2.732-12.351-17.9-36.889-24.627-40.511
					C487.167,257.323,484.603,258.848,483.044,262.04z"/>
			</g>
			<g>
				<path fill="#695020" d="M522.508,342.905c0,0-14.11-30.297-14.823-31.195c-0.713-0.901-5.661-4.175-5.661-4.175
					s5.481,2.472,4.945,0.59c-0.536-1.884-6.389-15.274-6.389-15.274s6.775,13.112,7.558,12.544
					c0.782-0.565,1.732-7.484,1.732-7.484s-0.628,8.907,0.655,11.493c1.284,2.585,16.035,31.49,16.035,31.49L522.508,342.905z"/>
			</g>
		</g>
		<g>
			
				<ellipse transform="matrix(-0.9718 0.2356 -0.2356 -0.9718 1043.9188 806.0293)" fill="#C6C2AF" cx="473.798" cy="465.39" rx="3.585" ry="9.031"/>
			<g>
				<g>
					<g>
						<path fill="#B4CB34" d="M457.355,471.724c0,0,3.011,2.589,0.486,5.405c0,0,1.707,3.262-1.307,4.818
							c0,0,0.665,4.249-2.582,4.854c0,0-1.202,5.619-6.591,3.435c0,0-2.078,3.903-6.165,1.036c0,0-3.48,3.784-5.872-0.781
							c0,0-5.04,0.763-5.093-4.37c0,0-4.471-0.293-4.049-5.355c0,0-4.145-3.452-0.561-6.847c0,0-1.722-4.452,1.878-6.243
							c0,0-0.468-4.572,4.053-5.209c0,0,2.293-4.153,6.54-2.887c0,0,5.675-3.666,7.366,0.894c0,0,2.709-0.815,4.594,1.668
							c0,0,3.435-0.308,3.63,2.769c0,0,3.058,1.647,2.073,3.633L457.355,471.724z"/>
					</g>
					<path fill="#AAB72C" d="M431.556,462.465c-4.521,0.637-4.053,5.209-4.053,5.209c8.983-4.512,22.468-2.083,25.579,6.017
						c3.112,8.098,0.872,13.11,0.872,13.11c3.247-0.604,2.582-4.854,2.582-4.854c3.014-1.558,1.307-4.818,1.307-4.818
						c2.524-2.816-0.486-5.405-0.486-5.405l-1.596-3.185c0.984-1.983-2.073-3.632-2.073-3.632c-0.195-3.076-3.63-2.769-3.63-2.769
						c-1.885-2.483-4.594-1.668-4.594-1.668c-1.691-4.56-7.366-0.894-7.366-0.894C433.849,458.312,431.556,462.465,431.556,462.465z
						"/>
				</g>
				<g>
					<path fill="#695020" d="M450.634,478.877c0,0-0.674-4.98,1.758-5.938s22.936-5.011,22.936-5.011l-1.262-5.206
						c0,0-22.264,7.787-24.105,7.407c-1.843-0.38-3.388-2.67-3.388-2.67s0.622,2.881,1.716,3.626
						c1.095,0.744,1.604,1.907,1.704,3.262C450.093,475.7,450.049,477.09,450.634,478.877z"/>
				</g>
			</g>
		</g>
		<g>
			
				<ellipse transform="matrix(0.7184 -0.6957 0.6957 0.7184 -45.8072 576.6779)" fill="#C6C2AF" cx="689.343" cy="344.915" rx="3.781" ry="9.528"/>
			<g>
				<g>
					<g>
						<path fill="#94C85B" d="M704.971,325.554c0,0-5.075-10.658-1.088-18.164c3.985-7.505,14.188-13.498,24.19-8.85
							c10.003,4.646,14.206,18.8,6.689,27.051c-7.518,8.25-17.803,8.463-26.108,3.768L704.971,325.554z"/>
					</g>
					<path fill="#84AF4B" d="M734.763,325.591c3.454-3.792,4.432-8.829,3.511-13.619l0,0c-2.274,9.447-16.336,16.999-25.701,11.242
						c-9.221-5.667-9.638-13.174-9.648-13.404c-2.027,7.182,2.046,15.744,2.046,15.744l3.684,3.804
						C716.96,334.054,727.246,333.841,734.763,325.591z"/>
				</g>
				<g>
					<path fill="#695020" d="M687.218,344c0,0,20.61-18.852,21.144-19.686c0.534-0.834,1.718-5.938,1.718-5.938
						s-0.333,5.389,1.09,4.485c1.423-0.902,10.891-9.122,10.891-9.122s-8.933,8.968-8.202,9.526
						c0.732,0.557,6.901-0.191,6.901-0.191s-7.75,1.488-9.529,3.211c-1.779,1.722-21.006,20.817-21.006,20.817L687.218,344z"/>
				</g>
			</g>
		</g>
		<g>
			
				<ellipse transform="matrix(0.3231 0.9464 -0.9464 0.3231 969.5466 -223.3374)" fill="#C6C2AF" cx="640.9" cy="566.106" rx="3.627" ry="9.136"/>
			<g>
				<g>
					<polygon fill="#695020" points="647.283,587.55 648.107,587.145 649.006,586.962 643.001,564.451 640.635,565.261 
						638.267,566.069 					"/>
				</g>
				<g>
					<polygon fill="#588E3F" points="635.217,585.986 633.974,586.409 639.031,591.931 637.434,592.477 641.495,596.82 
						640.074,597.306 644.964,601.171 643.01,601.838 648.383,607.117 647.139,607.543 651.539,612.299 649.764,612.905 
						654.258,616.772 652.304,617.44 657.31,621.066 655.713,621.612 662.222,628.48 663.172,619.065 661.572,619.611 
						663.315,613.68 661.361,614.347 662.552,608.537 660.775,609.146 661.348,602.69 660.104,603.115 661.126,595.651 
						659.172,596.318 660.677,590.271 659.256,590.756 659.813,584.835 658.214,585.381 658.839,577.92 657.596,578.344 
						658.6,571.411 644.392,576.265 630.183,581.115 					"/>
				</g>
			</g>
			<path fill="#44722D" d="M630.183,581.115l5.035,4.87l-1.243,0.424l5.058,5.521l-1.598,0.546l4.062,4.344l-1.421,0.485l4.89,3.865
				l-1.953,0.667l5.373,5.279l-1.244,0.426l4.399,4.756l-1.775,0.605l4.494,3.867l-1.954,0.668l5.006,3.626l-1.598,0.546
				l6.509,6.868c-11.146-23.857-14.114-41.336-11.579-47.629c2.536-6.293,7.957-9.439,7.957-9.439l-14.208,4.854L630.183,581.115z"
				/>
		</g>
		<g>
			
				<ellipse transform="matrix(-0.9432 -0.3321 0.3321 -0.9432 779.8843 870.0082)" fill="#C6C2AF" cx="464.293" cy="368.355" rx="3.627" ry="9.136"/>
			<g>
				<g>
					<path fill="#88C881" d="M433.225,340.37c-5.21-0.339-8.967,3.281-10.388,7.27c-4.689,0.153-8.81,4.69-8.673,9.596
						c0.158,5.689,5.276,9.02,9.659,9.132c0.001,0,0.002,0,0.003,0c0.131,1.735,0.816,3.482,2.194,5.082
						c3.136,3.639,9.399,2.576,11.904-1.456c2.288-3.685,0.789-7.897-1.773-10.194c2.646-1.121,4.871-3.257,6.136-6.532
						C444.563,347.378,439.45,340.774,433.225,340.37z"/>
					<path fill="#6AA562" d="M436.821,353.155c-0.958,3.856-3.663,5.33-3.663,5.33s1.862,3.525,0.45,8.763
						c-1.307,4.848-4.969,5.681-5.508,5.777c3.302,1.55,7.795,0.233,9.823-3.031c2.288-3.685,0.789-7.897-1.773-10.194
						c2.646-1.121,4.871-3.257,6.136-6.532c2.276-5.89-2.836-12.494-9.063-12.897c-5.21-0.339-8.967,3.281-10.388,7.27
						C430.567,342.276,437.779,349.299,436.821,353.155z"/>
				</g>
				<g>
					<path fill="#695020" d="M464.194,371.24c0,0-25-9.616-25.942-9.717c-0.945-0.102-5.832,1.068-5.832,1.068
						s4.768-2.021,3.384-2.855s-12.49-5.439-12.49-5.439s11.52,3.827,11.686,2.959c0.164-0.867-3.117-5.84-3.117-5.84
						s4.595,6.014,6.834,6.803c2.238,0.789,26.855,9.112,26.855,9.112L464.194,371.24z"/>
				</g>
			</g>
		</g>
		<g>
			
				<ellipse transform="matrix(-0.5772 0.8166 -0.8166 -0.5772 1246.5566 397.6343)" fill="#C6C2AF" cx="520.333" cy="521.544" rx="1.621" ry="4.083"/>
			<g>
				<g>
					<polygon fill="#695020" points="514.24,529.463 514.604,529.655 514.904,529.933 521.482,521.861 520.569,521.217 
						519.656,520.57 					"/>
				</g>
				<g>
					<polygon fill="#588E3F" points="511.646,524.684 511.167,524.345 510.492,527.622 509.877,527.187 509.367,529.796 
						508.819,529.407 508.7,532.19 507.947,531.657 507.442,534.987 506.964,534.648 506.395,537.487 505.71,537.003 
						505.486,539.644 504.732,539.111 504.731,541.874 504.114,541.438 503.333,545.595 506.991,543.472 506.376,543.035 
						508.979,542.113 508.227,541.58 510.641,540.489 509.955,540.006 512.442,538.521 511.964,538.183 514.934,536.598 
						514.18,536.064 516.765,535.025 516.217,534.638 518.506,533.287 517.89,532.853 520.756,531.124 520.275,530.784 
						523.049,529.333 517.569,525.458 512.09,521.585 					"/>
				</g>
			</g>
			<path fill="#44722D" d="M512.09,521.585l-0.444,3.099l-0.479-0.339l-0.675,3.277l-0.615-0.437l-0.51,2.609l-0.548-0.389
				l-0.119,2.782l-0.753-0.532l-0.504,3.329l-0.479-0.339l-0.569,2.839l-0.685-0.483l-0.224,2.641l-0.754-0.532l-0.001,2.764
				l-0.616-0.437l-0.781,4.156c5.719-10.287,11.271-15.939,14.213-16.67c2.942-0.731,5.503,0.408,5.503,0.408l-5.479-3.874
				L512.09,521.585z"/>
		</g>
		<g>
			
				<ellipse transform="matrix(0.7095 -0.7047 0.7047 0.7095 -71.6775 604.4218)" fill="#C6C2AF" cx="697.294" cy="389.152" rx="1.621" ry="4.083"/>
			<g>
				<g>
					<polygon fill="#695020" points="704.693,382.377 704.369,382.125 704.12,381.8 696.249,388.615 697.037,389.408 
						697.824,390.202 					"/>
				</g>
				<g>
					<polygon fill="#588E3F" points="706.426,387.533 706.839,387.949 708.068,384.836 708.601,385.373 709.552,382.89 
						710.024,383.367 710.621,380.646 711.271,381.301 712.343,378.109 712.757,378.525 713.808,375.827 714.398,376.422 
						715.073,373.86 715.725,374.514 716.202,371.793 716.734,372.329 718.221,368.369 714.252,369.83 714.783,370.365 
						712.06,370.825 712.71,371.479 710.143,372.137 710.733,372.732 708.027,373.765 708.441,374.181 705.242,375.23 
						705.893,375.885 703.167,376.463 703.641,376.939 701.152,377.874 701.685,378.409 698.563,379.617 698.978,380.034 
						695.995,380.985 700.725,385.747 705.452,390.508 					"/>
				</g>
			</g>
			<path fill="#44722D" d="M705.452,390.508l0.974-2.977l0.413,0.417l1.229-3.112l0.532,0.536l0.951-2.482l0.473,0.478l0.598-2.721
				l0.65,0.654l1.071-3.192l0.414,0.416l1.051-2.697l0.591,0.595l0.675-2.563l0.651,0.654l0.478-2.721l0.532,0.536l1.487-3.959
				c-7.408,9.146-13.852,13.756-16.875,13.968c-3.025,0.213-5.351-1.353-5.351-1.353l4.729,4.762L705.452,390.508z"/>
		</g>
		<g>
			<g>
				<g>
					<path fill="#4B823D" d="M702.322,549.446c0,0,5.395-3.472,13.595,0.424c8.2,3.896,24.565,18.169,28.97,26.257
						c4.403,8.086,4.637,17.742-2.563,16.875c-7.201-0.87-29.104-17.298-35.796-27.264
						C699.835,555.771,701.277,551.424,702.322,549.446z"/>
				</g>
				<path fill="#3F6D32" d="M747.963,587.842c-3.833,3.424-14.313-2.535-21.341-7.44c-7.028-4.906-21.495-16.861-18.37-23.613
					c3.095-6.688,8.929-6.218,9.04-6.208c-0.479-0.263-0.94-0.504-1.375-0.71c-8.2-3.896-13.594-0.424-13.594-0.424
					c-1.045,1.979-2.488,6.325,4.205,16.292c6.692,9.966,28.596,26.394,35.796,27.263
					C745.952,593.438,747.691,591.201,747.963,587.842z"/>
			</g>
			<g>
				<path fill="#695020" d="M685.074,530.063c0,0,22.964,21.882,23.906,22.429c0.942,0.551,6.449,1.729,6.449,1.729
					s-5.701-0.287-4.575,1.189c1.126,1.479,10.936,11.283,10.936,11.283s-10.528-9.237-11.022-8.466
					c-0.495,0.771,1.063,7.215,1.063,7.215s-2.531-8.089-4.562-9.928c-2.03-1.841-25.078-22.271-25.078-22.271L685.074,530.063z"/>
			</g>
		</g>
		<g>
			
				<ellipse transform="matrix(0.9991 -0.0432 0.0432 0.9991 -18.6013 31.7227)" fill="#C6C2AF" cx="724.796" cy="446.313" rx="4.861" ry="12.246"/>
			<g>
				<g>
					<g>
						<path fill="#B4CB34" d="M748.384,442.215c0,0-3.328-4.233,0.77-7.318c0,0-1.415-4.786,3.003-6.068c0,0,0.23-5.826,4.708-5.777
							c0,0,3.073-7.161,9.669-2.842c0,0,3.789-4.646,8.475,0.239c0,0,5.625-4.122,7.605,2.577c0,0,6.905,0.312,5.629,7.151
							c0,0,5.871,1.562,3.981,8.188c0,0,4.607,5.681-1.051,9.255c0,0,1.123,6.375-4.136,7.813c0,0-0.579,6.205-6.758,5.867
							c0,0-4.141,4.924-9.458,2.124c0,0-8.511,3.389-9.565-3.12c0,0-3.818,0.374-5.676-3.425c0,0-4.649-0.49-4.103-4.636
							c0,0-3.637-2.993-1.806-5.376L748.384,442.215z"/>
					</g>
					<path fill="#AAB72C" d="M780.279,461.301c6.181,0.338,6.758-5.867,6.758-5.867c-13.136,3.644-30.438-3.122-32.452-14.714
						c-2.018-11.588,2.279-17.67,2.279-17.67c-4.478-0.049-4.708,5.777-4.708,5.777c-4.418,1.282-3.003,6.068-3.003,6.068
						c-4.098,3.085-0.77,7.318-0.77,7.318l1.288,4.653c-1.831,2.382,1.806,5.376,1.806,5.376c-0.547,4.146,4.103,4.636,4.103,4.636
						c1.857,3.799,5.676,3.425,5.676,3.425c1.055,6.509,9.565,3.12,9.565,3.12C776.139,466.225,780.279,461.301,780.279,461.301z"/>
				</g>
				<g>
					<path fill="#695020" d="M759.202,434.462c0,0-0.41,6.803-3.896,7.438c-3.486,0.638-31.829,0.651-31.829,0.651l0.314,7.258
						c0,0,31.661-4.521,34.013-3.532c2.353,0.988,3.806,4.44,3.806,4.44s-0.072-3.996-1.333-5.274s-1.633-2.959-1.411-4.787
						C759.089,438.828,759.512,436.992,759.202,434.462z"/>
				</g>
			</g>
		</g>
	</g>
</g>
    
   <g id="road" class="rotate rotate-reallyslow">
	<circle id="asfalt" stroke="#000000" cx="594" cy="440" r="87.248"/>
	<g id="kreski">
		
			<circle fill="none" stroke="#FFFFFF" stroke-width="3" stroke-dasharray="12.1119,12.1119" cx="594" cy="440" r="73.248"/>
	</g>
</g>
    
              
    <g id="van" class="vibrate-1">
	<g>
		<g>
			<g>
				<defs>
					<rect id="SVGID_1_" x="556.77" y="350.345" width="72.446" height="3.248"/>
				</defs>
				<clipPath id="SVGID_2_">
					<use xlink:href="#SVGID_1_"  overflow="visible"/>
				</clipPath>
				<path clip-path="url(#SVGID_2_)" fill="#383838" d="M629.216,351.969c0,0.897-16.219,1.624-36.224,1.624
					c-20.006,0-36.223-0.727-36.223-1.624c0-0.896,16.217-1.624,36.223-1.624C612.997,350.345,629.216,351.073,629.216,351.969"/>
			</g>
		</g>
	</g>
	<polygon fill="#3E1E2E" points="554.867,347.917 560.879,347.917 563.888,346.153 562.208,346.153 560.662,347.035 
		554.313,347.035 	"/>
	<path fill="#3E1E2E" d="M627.198,346.27l-1.134-1.747h-1.397c-0.416,0-0.644-0.166-1.172-1.705
		c-0.529-1.539-0.869-2.508-1.248-2.688c-0.378-0.182-1.397-0.11-1.397-0.11l-10.243-0.014c0,0-0.155-0.308-0.871,0.69
		s-1.152,2.246-1.709,3.037c-0.557,0.79-1.237,0.79-1.237,0.79h-9.799h-5.36h-9.478c0,0-0.68,0-1.237-0.79
		c-0.558-0.791-0.992-2.039-1.709-3.037c-0.716-0.997-0.87-0.69-0.87-0.69l-10.243,0.014c0,0-1.021-0.071-1.398,0.11
		c-0.378,0.181-0.718,1.149-1.248,2.688c-0.529,1.539-0.756,1.705-1.171,1.705h-1.397l-1.135,1.747l32.726-0.043L627.198,346.27z"/>
	<path fill="#351827" d="M573.13,352.511c-3.506,0-6.357-2.852-6.357-6.358c0-3.506,2.852-6.357,6.357-6.357
		s6.357,2.852,6.357,6.357C579.487,349.659,576.636,352.511,573.13,352.511 M573.13,342.838c-1.828,0-3.314,1.487-3.314,3.313
		c0,1.827,1.487,3.315,3.314,3.315c1.828,0,3.314-1.487,3.314-3.315C576.444,344.324,574.958,342.838,573.13,342.838"/>
	<path fill="#FFFFFF" d="M576.679,346.153c0,1.96-1.589,3.55-3.549,3.55c-1.959,0-3.549-1.59-3.549-3.55s1.59-3.549,3.549-3.549
		C575.09,342.604,576.679,344.193,576.679,346.153"/>
	<path fill="#65374D" d="M573.131,349.515c-1.854,0-3.363-1.508-3.363-3.362c0-1.854,1.508-3.362,3.363-3.362
		c1.854,0,3.362,1.508,3.362,3.362C576.492,348.007,574.984,349.515,573.131,349.515 M573.131,342.925
		c-1.78,0-3.229,1.448-3.229,3.228c0,1.78,1.448,3.228,3.229,3.228c1.778,0,3.227-1.448,3.227-3.228
		C576.357,344.374,574.909,342.925,573.131,342.925"/>
	<path fill="#351827" d="M616.139,352.126c-3.505,0-6.358-2.853-6.358-6.358s2.854-6.356,6.358-6.356s6.357,2.852,6.357,6.356
		S619.645,352.126,616.139,352.126 M616.139,342.454c-1.828,0-3.315,1.486-3.315,3.313c0,1.828,1.487,3.315,3.315,3.315
		s3.314-1.487,3.314-3.315S617.967,342.454,616.139,342.454"/>
	<path fill="#FFFFFF" d="M619.688,345.769c0,1.959-1.589,3.548-3.549,3.548s-3.549-1.589-3.549-3.548
		c0-1.96,1.589-3.549,3.549-3.549S619.688,343.809,619.688,345.769"/>
	<path fill="#65374D" d="M616.139,349.131c-1.854,0-3.363-1.508-3.363-3.362c0-1.854,1.509-3.363,3.363-3.363
		c1.854,0,3.362,1.509,3.362,3.363S617.992,349.131,616.139,349.131 M616.139,342.541c-1.779,0-3.228,1.447-3.228,3.228
		c0,1.779,1.448,3.228,3.228,3.228c1.78,0,3.228-1.448,3.228-3.228C619.366,343.989,617.919,342.541,616.139,342.541"/>
	<path fill="#F4F0DC" d="M621.961,329.129c4.102,0,8.504,3.522,9.564,7.406c0.01,0.613,0.017,1.29,0.021,1.983h0.002v-6.563
		c0,0-0.7-2.062-1.555-3.706h0.035l-6.438-10.626h-3.042h-59.542c0,0-1.577,3.148-2.077,5.589c-0.126,0.617-0.23,1.244-0.314,1.837
		l0,0c-0.105,0.747-0.182,1.438-0.232,1.986c-0.023,0.253-0.042,0.476-0.058,0.658l-0.156,1.436L621.961,329.129L621.961,329.129z"
		/>
	<path fill="#85C6C3" d="M605.392,326.625c0,0.599-0.378,1.084-0.845,1.084h-17.16c-0.467,0-0.845-0.485-0.845-1.084v-6.056
		c0-0.599,0.378-1.084,0.845-1.084h17.16c0.466,0,0.845,0.485,0.845,1.084V326.625z"/>
	<path fill="#85C6C3" d="M623.617,326.625c0,0.599-0.366,1.084-0.818,1.084h-13.89c-0.451,0-0.817-0.485-0.817-1.084v-6.055
		c0-0.599,0.366-1.084,0.817-1.084h9.989c0.452,0,1.649,0,2.119,1.084L623.617,326.625z"/>
	<path fill="#85C6C3" d="M624.51,319.143l-1.601,0.485c0,0-0.321,0.223,0,1.071c0.322,0.849,2.575,6.609,2.575,6.609
		s0.144,0.67,0.679,0.759c0.537,0.089,3.617-0.224,3.617-0.224L624.51,319.143z"/>
	<path fill="#85C6C3" d="M583.19,319.487h-14.659c-0.211,0.012-0.519,0.061-0.644,0.24c-0.199,0.288-1.913,6.776-1.913,6.776
		s-0.106,0.457,0.258,0.704s1.158,0.503,1.158,0.503h15.799c0.453,0,0.819-0.485,0.819-1.084v-6.055
		C584.01,319.972,583.643,319.487,583.19,319.487"/>
	<path fill="#F92649" d="M631.525,336.535c-1.061-3.884-5.463-7.406-9.564-7.406h-63.979l-0.317,4.563l0.749,11.304h4.707h1.533
		c0.237-0.153,0.458-0.563,0.821-1.618c0.529-1.539,0.87-2.508,1.248-2.689c0.378-0.181,1.397-0.109,1.397-0.109l10.243-0.015
		c0,0,0.322-0.074,0.871,0.691c0.716,0.999,1.152,2.246,1.709,3.036c0.292,0.414,0.616,0.609,0.86,0.704h25.391
		c0.244-0.095,0.569-0.29,0.86-0.704c0.557-0.79,0.879-1.7,1.596-2.699c0.716-0.998,0.984-1.029,0.984-1.029l10.243,0.015
		c0,0,1.021-0.071,1.398,0.109c0.378,0.182,0.718,1.15,1.247,2.689c0.363,1.056,0.583,1.465,0.821,1.618h7.172
		C631.516,344.996,631.579,339.858,631.525,336.535"/>
	<path fill="#F92649" d="M624.068,317.375c0,0.262-0.212,0.474-0.474,0.474h-62.433c-0.262,0-0.474-0.212-0.474-0.474
		c0-0.263,0.212-0.475,0.474-0.475h62.433C623.856,316.902,624.068,317.114,624.068,317.375"/>
	<path fill="#F92649" d="M622.768,316.902l-0.658-1.182c-0.132-0.238-0.438-0.43-0.685-0.429l-29.192,0.084l-29.192-0.084
		c-0.245,0-0.552,0.19-0.685,0.429l-0.658,1.182H622.768z"/>
	<polygon fill="#CBD6D5" points="556.813,345.046 558.328,343.721 565.352,343.721 564.943,345.046 	"/>
	<polygon fill="#B0B7B6" points="556.813,345.046 558.328,346.373 564.563,346.373 564.943,345.046 	"/>
	<polygon fill="#CBD6D5" points="633.323,345.292 631.528,342.569 631.501,344.006 623.745,343.966 624.292,345.769 	"/>
	<polygon fill="#B0B7B6" points="633.323,345.292 631.797,346.618 624.534,346.618 624.154,345.292 	"/>
	<path fill="#D0C9AD" d="M631.547,332.003v7.619c0.745-0.854,1.229-2.24,1.229-3.811
		C632.776,334.244,632.292,332.856,631.547,332.003"/>
	<path fill="#65374D" d="M631.525,336.806c-0.119,0-0.228-0.079-0.261-0.2c-1.049-3.839-5.396-7.207-9.304-7.207h-63.979
		c-0.148,0-0.271-0.121-0.271-0.271c0-0.15,0.12-0.271,0.271-0.271h63.979c4.128,0,8.72,3.555,9.825,7.605
		c0.04,0.144-0.045,0.293-0.188,0.333C631.572,336.803,631.549,336.806,631.525,336.806"/>
	<path fill="#65374D" d="M631.547,340.27v1.519c0.419,0,0.759-0.339,0.759-0.76C632.307,340.609,631.967,340.27,631.547,340.27"/>
	<path fill="#3E1E2E" d="M585.353,343.217V318.56h21.043v24.604L585.353,343.217z M585.555,318.763v24.251l20.637-0.055v-24.197
		L585.555,318.763L585.555,318.763z"/>
	<polygon fill="#3E1E2E" points="631.519,343.217 624.635,343.217 623.013,339.896 607.05,339.896 607.05,318.56 624.219,318.56 
		624.219,318.763 607.253,318.763 607.253,339.693 623.14,339.693 624.762,343.014 631.519,343.014 	"/>
	<rect x="559.741" y="331.024" fill="#3E1E2E" width="5.61" height="0.558"/>
	<rect x="559.741" y="331.971" fill="#3E1E2E" width="5.61" height="0.557"/>
	<rect x="559.741" y="332.918" fill="#3E1E2E" width="5.61" height="0.557"/>
	<rect x="559.741" y="333.866" fill="#3E1E2E" width="5.61" height="0.557"/>
	<rect x="559.741" y="334.813" fill="#3E1E2E" width="5.61" height="0.558"/>
	<rect x="559.741" y="335.76" fill="#3E1E2E" width="5.61" height="0.557"/>
	<path fill="#3E1E2E" d="M606.396,343.807h-21.043v-0.792h21.043V343.807z M585.555,343.604h20.637v-0.387h-20.637V343.604z"/>
	<polygon fill="#3E1E2E" points="604.314,330.761 601.558,330.761 601.558,331.598 604.314,331.598 604.314,332.233 
		605.075,332.233 605.075,331.598 605.075,330.761 	"/>
	<polygon fill="#3E1E2E" points="611.455,330.761 608.698,330.761 608.698,331.598 611.455,331.598 611.455,332.233 
		612.217,332.233 612.217,331.598 612.217,330.761 	"/>
	<path fill="#D0C9AD" d="M565.352,320.51c0,0.225-0.182,0.406-0.406,0.406h-2.842c-0.225,0-0.406-0.183-0.406-0.406v-0.617
		c0-0.224,0.183-0.406,0.406-0.406h2.842c0.225,0,0.406,0.183,0.406,0.406V320.51z"/>
	<path fill="#3E1E2E" d="M609.401,312.526h-43.669c-0.21,0-0.38,0.183-0.38,0.406c0,0.225,0.17,0.406,0.38,0.406h1.498v1.967h1.263
		v-1.967h38.558v1.967h1.263v-1.967h1.089c0.21,0,0.38-0.183,0.38-0.406C609.78,312.708,609.61,312.526,609.401,312.526"/>
	<polygon fill="#A8E0DC" points="574.952,319.487 570.659,319.487 576.226,327.709 580.532,327.709 	"/>
	<polygon fill="#A8E0DC" points="575.597,319.487 581.196,327.709 582.007,327.709 576.506,319.487 	"/>
	<polygon fill="#A8E0DC" points="588.195,319.487 593.797,327.709 594.606,327.709 589.104,319.487 	"/>
	<polygon fill="#A8E0DC" points="589.549,319.487 595.149,327.709 595.96,327.709 590.458,319.487 	"/>
	<polygon fill="#A8E0DC" points="614.751,319.502 610.458,319.502 616.024,327.725 620.331,327.725 	"/>
	<polygon fill="#A8E0DC" points="608.866,319.487 614.467,327.709 615.276,327.709 609.775,319.487 	"/>
	<path fill="#65374D" d="M626.349,324.675v4.792l-0.955,2.164h-0.761v-0.479h-2.678v1.62h2.678v-0.843h0.952l0.854-1.881
		c0.633-0.171,1.099-0.748,1.099-1.436v-2.479C627.538,325.413,627.027,324.813,626.349,324.675"/>
	<path fill="#65374D" d="M590.475,310.65c-9.952,0.068-26.696,1.646-27.646,1.508c-0.949-0.138-1.745-1.482,0.107-1.598
		s10.037-2.271,28.738-1.681c18.7,0.589,27.159,4.043,26.093,4.562C616.698,313.959,608.886,310.525,590.475,310.65"/>
	<path fill="#3E1E2E" d="M565.075,303.825c-0.623,0.323,0.689,0.647,1.024,2.292c0.335,1.644-0.037,3.974-0.037,3.974l5.649-0.708
		c0,0-1.526-2.94-3.309-4.08C566.622,304.165,565.075,303.825,565.075,303.825"/>
</g>
    
          
    <g id="grass" class="rotate rotate-reallyslow">
	<circle id="_x31_-plan_1_" fill="#588E3F" cx="594" cy="440" r="40"/>
	<g id="krzaki">
		<g>
			<path fill="#588E3F" d="M611.054,400.588c0,0,2.159-5.226,6.176-6.378c0,0-2.657,2.092-2.188,3.431c0,0,3.672-2.75,4.275-5.065
				c0,0-0.587,3.341-2.1,4.902c0,0,2.21-2.021,3.43-1.849c0,0-4.306,3.145-3.832,4.738c0,0,1.596-0.347,2.85-2.032
				c0,0-0.475,2.313-1.937,3.042c0,0,4.142-1.412,5.493-5.021c0,0-0.716,3.721-4.37,5.354c0,0,2.407,0.061,4.417-2.406
				c0,0-1.354,3.481-3.074,4.086c0,0,1.592-0.603,3.859-3.073c2.267-2.471,4.243-3.08,5.408-2.329c0,0-3.385,0.76-4.179,3.143
				c-0.795,2.383-3.132,4.407-3.132,4.407s3.379-1.016,4.426-3.659c0,0-1.478,3.739-2.876,4.402c0,0,3.693-3.358,6.148-3.126
				c0,0-4.723,2.11-4.601,4.751c0,0,1.81-0.013,3.443-1.961c0,0-1.679,3.166-3.454,4.349c0,0,4.993-4.244,7.617-0.443
				c0,0-4.146-2.751-8.462,3.661L611.054,400.588z"/>
		</g>
		<g>
			<path fill="#588E3F" d="M623.974,449.04c0,0,5.307,1.948,6.619,5.916c0,0-2.196-2.57-3.515-2.048c0,0,2.896,3.56,5.232,4.068
				c0,0-3.362-0.452-4.983-1.901c0,0,2.109,2.127,1.985,3.354c0,0-3.314-4.177-4.888-3.641c0,0,0.41,1.581,2.144,2.768
				c0,0-2.331-0.382-3.117-1.813c0,0,1.577,4.082,5.238,5.287c0,0-3.746-0.565-5.522-4.15c0,0,0.035,2.406,2.58,4.316
				c0,0-3.532-1.214-4.205-2.908c0,0,0.666,1.566,3.225,3.733c2.561,2.165,3.247,4.115,2.544,5.311c0,0-0.894-3.351-3.307-4.049
				c-2.413-0.699-4.528-2.954-4.528-2.954s1.15,3.336,3.833,4.276c0,0-3.794-1.327-4.514-2.698c0,0,3.505,3.557,3.37,6.019
				c0,0-2.298-4.636-4.932-4.406c0,0,0.086,1.808,2.097,3.363c0,0-3.229-1.552-4.481-3.277c0,0,4.44,4.819,0.748,7.594
				c0,0,2.583-4.253-3.996-8.31L623.974,449.04z"/>
		</g>
		<g>
			<path fill="#588E3F" d="M564.94,453.617c0,0-3.769,4.213-7.942,3.97c0,0,3.201-1.093,3.201-2.512c0,0-4.375,1.377-5.712,3.361
				c0,0,1.661-2.956,3.606-3.929c0,0-2.755,1.174-3.851,0.606c0,0,5.105-1.539,5.188-3.199c0,0-1.62-0.202-3.362,0.972
				c0,0,1.215-2.025,2.836-2.229c0,0-4.375-0.041-6.848,2.916c0,0,1.909-3.271,5.896-3.6c0,0-2.25-0.855-4.965,0.806
				c0,0,2.433-2.837,4.254-2.836c0,0-1.7,0.04-4.659,1.619c-2.957,1.58-5.023,1.499-5.875,0.404c0,0,3.444,0.404,4.984-1.579
				c1.541-1.984,4.417-3.118,4.417-3.118s-3.524-0.163-5.389,1.983c0,0,2.634-3.037,4.174-3.199c0,0-4.599,1.943-6.837,0.91
				c0,0,5.156-0.426,5.916-2.956c0,0-1.711-0.587-3.899,0.708c0,0,2.634-2.432,4.7-2.957c0,0-6.118,2.349-7.333-2.107
				c0,0,2.999,3.97,9.197-0.646L564.94,453.617z"/>
		</g>
		<g>
			<path fill="#588E3F" d="M582.188,393.915c0,0,1.407-6.004-0.661-8.54c0,0,2.735,2.734,2.335,5.804c0,0,1.214-2.602,0.04-4.937
				c0,0,1.627,2.4,1.094,4.803c0,0,0.067-4.803,1.269-5.67c0,0-1.334,3.002,0,5.67c0,0,1.066-1.201,1-3.469
				c0,0,1.201,1.867,0.601,3.535c0,0,1.201-2.335,0.667-4.47c0,0,0.801,2.201,0.467,4.536c0,0,1.097-3.869,0.081-7.338
				c0,0,2.253,3.469,0.986,7.338c0,0,1.667-2.614,1.267-6.244c0,0,1.002,3.842,0.334,5.978c0,0,1.066-4.27,4.003-3.735
				c0,0-3.003,1-2.335,3.602c0,0,1.268-3.067,3.002-1.9c0,0-2.001,0.634-1.534,2.368c0,0,4.27-1.334,2.468-4.804
				c0,0,1.954,1.936,0.443,4.536c0,0,1.625-2.935,3.559-2.468c0,0-2.935,1.268-2.201,5.404L582.188,393.915L582.188,393.915z"/>
		</g>
		<g>
			<path fill="#588E3F" d="M582.822,467.074c0,0-4.065,4.639-3.433,7.848c0,0-1.127-3.7,0.669-6.221c0,0-2.295,1.727-2.357,4.338
				c0,0-0.307-2.885,1.293-4.754c0,0-2.317,4.208-3.784,4.409c0,0,2.589-2.021,2.667-5.005c0,0-1.508,0.558-2.516,2.592
				c0,0-0.181-2.214,1.133-3.402c0,0-2.157,1.495-2.69,3.631c0,0,0.329-2.319,1.721-4.224c0,0-2.787,2.898-3.521,6.438
				c0,0-0.357-4.121,2.58-6.939c0,0-2.701,1.522-4.056,4.914c0,0,0.924-3.86,2.518-5.431c0,0-2.95,3.265-5.289,1.413
				c0,0,3.12,0.529,3.754-2.08c0,0-2.563,2.111-3.543,0.265c0,0,2.063,0.384,2.467-1.366c0,0-4.396-0.831-4.438,3.077
				c0,0-0.813-2.626,1.742-4.212c0,0-2.813,1.825-4.301,0.504c0,0,3.187,0.263,4.484-3.733L582.822,467.074z"/>
		</g>
		<g>
			<path fill="#588E3F" d="M631.467,429.141c0,0,5.011,3.596,8.144,2.654c0,0-3.573,1.48-6.255-0.063c0,0,1.94,2.116,4.546,1.924
				c0,0-2.841,0.586-4.856-0.825c0,0,4.413,1.898,4.756,3.34c0,0-2.266-2.381-5.241-2.167c0,0,0.701,1.444,2.824,2.251
				c0,0-2.187,0.395-3.497-0.799c0,0,1.698,2.002,3.875,2.325c0,0-2.34-0.102-4.37-1.302c0,0,3.156,2.491,6.75,2.88
				c0,0-4.067,0.756-7.158-1.894c0,0,1.778,2.539,5.285,3.558c0,0-3.933-0.544-5.649-1.978c0,0,3.536,2.618,1.92,5.127
				c0,0,0.225-3.156-2.435-3.534c0,0,2.351,2.344,0.607,3.501c0,0,0.18-2.091-1.602-2.323c0,0-0.399,4.455,3.496,4.117
				c0,0-2.535,1.065-4.362-1.324c0,0,2.091,2.622,0.92,4.231c0,0-0.049-3.196-4.151-4.101L631.467,429.141z"/>
		</g>
		<g>
			<path fill="#588E3F" d="M556.392,431.958c0,0-5.912-1.4-8.547-0.24c0,0,2.869-1.583,5.906-1.077c0,0-2.529-1.004-4.918-0.416
				c0,0,2.479-0.881,4.845-0.34c0,0-4.784-0.424-5.586-1.282c0,0,2.923,1.114,5.651,0.448c0,0-1.141-0.798-3.405-0.934
				c0,0,1.925-0.643,3.556-0.114c0,0-2.265-0.976-4.421-0.793c0,0,2.235-0.354,4.546,0.052c0,0-3.8-1.027-7.312-0.633
				c0,0,3.576-1.209,7.367-0.069c0,0-2.52-1.304-6.157-1.327c0,0,3.882-0.354,5.976,0.253c0,0-4.201-1.039-3.517-2.928
				c0,0,0.842,2.053,3.47,1.82c0,0-2.992-1.076-1.739-2.125c0,0,0.528,1.365,2.282,1.195c0,0-1.108-2.913-4.66-2.003
				c0,0,2.03-1.133,4.545,0.066c0,0-2.841-1.301-2.275-2.536c0,0,1.112,2.031,5.272,1.875L556.392,431.958z"/>
		</g>
		<path fill="#94C85B" d="M595.054,468.888c0,0,2.395,0.248,1.18,2.012c0,0,2.382,1.042,1.412,2.475
			c-0.97,1.435-2.839,0.108-2.839,0.108s1.655,1.271,0.145,2.104c-1.544,0.848-1.88-1.261-1.88-1.261s0.448,2.37-1.659,1.928
			c-1.911-0.402-1.745-1.998-0.62-2.562c0,0-1.568,1.076-2.184,0.094c-0.615-0.981,0.909-1.793,0.909-1.793
			s-1.758,0.978-2.312,0.196c-0.553-0.78,1.694-1.431,1.694-1.431L595.054,468.888z"/>
		<path fill="#94C85B" d="M563.979,433.846c0,0-0.702,2.303-2.2,0.772c0,0-1.479,2.139-2.7,0.911
			c-1.221-1.227,0.438-2.808,0.438-2.808s-1.565,1.382-2.091-0.26c-0.536-1.679,1.597-1.604,1.597-1.604s-2.412-0.016-1.574-1.998
			c0.762-1.799,2.295-1.329,2.632-0.117c0,0-0.755-1.746,0.326-2.162c1.083-0.415,1.586,1.236,1.586,1.236s-0.622-1.913,0.25-2.307
			s1.08,1.938,1.08,1.938L563.979,433.846z"/>
		<path fill="#94C85B" d="M594.313,405.449c0,0-3.712-2.427-0.236-4.29c0,0-3.021-3.718-0.222-5.244
			c2.797-1.528,4.74,2.218,4.74,2.218s-1.64-3.479,1.536-3.565c3.243-0.084,2.014,3.65,2.014,3.65s1.269-4.259,4.344-1.756
			c2.79,2.271,1.17,4.743-1.146,4.715c0,0,3.477-0.438,3.655,1.688c0.178,2.13-3.002,2.17-3.002,2.17s3.703-0.115,3.951,1.629
			c0.246,1.743-3.982,0.913-3.982,0.913L594.313,405.449z"/>
		<path fill="#88C881" d="M624.576,415.636c0,0,0.837-2.115,2.972-2.128c2.134-0.013,2.842,2.412,2.842,2.412
			s1.746-1.552,3.681,0.638c1.937,2.189-0.15,4.731-0.15,4.731s1.399-0.447,1.81,0.764s-1.41,1.476-1.962,1.146
			c0,0,1.799,0.792,1.101,2.072c-0.696,1.28-1.785-0.706-1.785-0.706s1.092,1.713,0.252,2.781c-0.84,1.067-1.815,0.283-1.815,0.283
			s1.125,1.129,0.574,1.801c-0.552,0.672-2.014-1.336-2.014-1.336L624.576,415.636z"/>
		<path fill="#88C881" d="M582.822,463.845c0,0-0.06,2.273-2.06,3.02c-2,0.744-3.497-1.29-3.497-1.29s-1.107,2.058-3.676,0.664
			c-2.57-1.392-1.482-4.495-1.482-4.495s-1.161,0.9-1.962-0.097c-0.801-0.996,0.818-1.869,1.449-1.749c0,0-1.961-0.126-1.746-1.568
			c0.215-1.44,1.92,0.051,1.92,0.051s-1.613-1.233-1.192-2.525c0.421-1.291,1.607-0.889,1.607-0.889s-1.444-0.674-1.157-1.494
			c0.288-0.82,2.35,0.563,2.35,0.563L582.822,463.845z"/>
		<path fill="#B4CB34" d="M562.226,406.998c0,0-2.115,0.448-2.745-1.86c-0.63-2.308,2.107-2.572,2.107-2.572
			s-2.489-3.891,1.631-6.562c4.121-2.671,7.275,3.238,7.275,3.238L562.226,406.998z"/>
		<path fill="#B4CB34" d="M609.93,442.224c0,0,2.161-0.065,2.371,2.319c0.21,2.383-2.531,2.156-2.531,2.156s1.758,4.271-2.771,6.167
			c-4.53,1.896-6.585-4.479-6.585-4.479L609.93,442.224z"/>
		<g>
			<path fill="#CF202A" d="M564.019,414.055c0,0,0.846-2.146,0.327-2.007c-0.538,0.145-1.05,0.871-1.05,0.871
				s-0.75-1.039-1.291-0.664c-0.542,0.374,0.035,1.332,0.035,1.332s-1.159-0.279-1.45,0.02c-0.291,0.298,1.769,1.271,1.769,1.271
				L564.019,414.055z"/>
			<path fill="#88C881" d="M569.318,422.53c-0.044-0.031-5.059-3.717-5.583-7.13l-0.162,0.022c0.544,3.547,4.938,6.755,5.124,6.891
				L569.318,422.53z"/>
			<path fill="#88C881" d="M563.762,415.517c0,0,0.62-0.373,0.256-1.462c0,0-1.226,0.028-1.683,0.816c0,0,0.16,0.736,1.283,0.725
				L563.762,415.517z"/>
			<g>
				<path fill="#88C881" d="M564.749,418.074c0,0,1.06-1.63,0.11-2.642C564.859,415.433,563.871,416.621,564.749,418.074z"/>
			</g>
			<g>
				<path fill="#88C881" d="M567.28,420.766c0,0-0.88-0.575-0.559-1.497c0.333-0.956,0.208-1.338,0.208-1.338
					s0.793,0.45,0.821,1.281C567.782,420.042,567.214,420.431,567.28,420.766z"/>
			</g>
			<g>
				<path fill="#88C881" d="M565.836,419.378c0,0-0.603-0.86-1.419-0.561c-0.848,0.313-1.209,0.188-1.209,0.188
					s0.48,0.775,1.244,0.813C565.217,419.857,565.522,419.31,565.836,419.378z"/>
			</g>
		</g>
		<g>
			<path fill="#CF202A" d="M596.445,442.432c0,0-1.153,1.251-0.759,1.293c0.409,0.043,0.954-0.32,0.954-0.32s0.239,0.914,0.711,0.8
				c0.472-0.111,0.329-0.924,0.329-0.924s0.723,0.5,1.003,0.371c0.279-0.127-0.878-1.344-0.878-1.344L596.445,442.432z"/>
			<path fill="#88C881" d="M595.056,435.194c0.021,0.033,2.49,3.901,1.941,6.388l0.118,0.028c0.569-2.585-1.598-5.959-1.69-6.101
				L595.056,435.194z"/>
			<path fill="#88C881" d="M597.011,441.493c0,0-0.525,0.093-0.565,0.938c0,0,0.852,0.307,1.374-0.113c0,0,0.086-0.551-0.689-0.839
				L597.011,441.493z"/>
			<g>
				<path fill="#88C881" d="M597.012,439.474c0,0-1.161,0.838-0.778,1.786C596.233,441.26,597.229,440.705,597.012,439.474z"/>
			</g>
			<g>
				<path fill="#88C881" d="M595.987,436.948c0,0,0.452,0.631-0.014,1.18c-0.483,0.566-0.499,0.863-0.499,0.863
					s-0.426-0.52-0.226-1.1C595.449,437.313,595.943,437.197,595.987,436.948z"/>
			</g>
			<g>
				<path fill="#88C881" d="M596.611,438.287c0,0,0.186,0.752,0.826,0.763c0.666,0.011,0.881,0.191,0.881,0.191
					s-0.125-0.661-0.639-0.89C597.164,438.123,596.81,438.418,596.611,438.287z"/>
			</g>
		</g>
		<g>
			<path fill="#CF202A" d="M621.435,406.414c0,0,2.307,0.026,1.991-0.409c-0.327-0.451-1.188-0.671-1.188-0.671
				s0.704-1.071,0.162-1.442c-0.542-0.373-1.231,0.507-1.231,0.507s-0.152-1.183-0.535-1.348c-0.383-0.166-0.56,2.105-0.56,2.105
				L621.435,406.414z"/>
			<path fill="#88C881" d="M615.399,414.383c0.013-0.052,1.674-6.05,4.678-7.754l-0.079-0.144c-3.122,1.771-4.557,7.018-4.615,7.24
				L615.399,414.383z"/>
			<path fill="#88C881" d="M619.978,406.694c0,0,0.568,0.446,1.457-0.28c0,0-0.463-1.137-1.361-1.282c0,0-0.632,0.413-0.221,1.458
				L619.978,406.694z"/>
			<g>
				<path fill="#88C881" d="M617.938,408.527c0,0,1.9,0.41,2.508-0.836C620.446,407.69,618.984,407.189,617.938,408.527z"/>
			</g>
			<g>
				<path fill="#88C881" d="M616.323,411.85c0,0,0.224-1.025,1.199-1.055c1.012-0.029,1.325-0.281,1.325-0.281
					s-0.138,0.901-0.905,1.224C617.178,412.062,616.611,411.668,616.323,411.85z"/>
			</g>
			<g>
				<path fill="#88C881" d="M617.105,410.006c0,0,0.59-0.869,0.019-1.524c-0.593-0.682-0.604-1.063-0.604-1.063
					s-0.555,0.725-0.318,1.451C616.438,409.598,617.059,409.689,617.105,410.006z"/>
			</g>
		</g>
	</g>
</g>      
   
    
    


</svg> 